<?xml version="1.0" encoding="UTF-8" standalone="no"?>
<!-- Created with Inkscape (http://www.inkscape.org/) -->

<svg
   xmlns:dc="http://purl.org/dc/elements/1.1/"
   xmlns:cc="http://creativecommons.org/ns#"
   xmlns:rdf="http://www.w3.org/1999/02/22-rdf-syntax-ns#"
   xmlns:svg="http://www.w3.org/2000/svg"
   xmlns="http://www.w3.org/2000/svg"
   xmlns:sodipodi="http://sodipodi.sourceforge.net/DTD/sodipodi-0.dtd"
   xmlns:inkscape="http://www.inkscape.org/namespaces/inkscape"
   version="1.1"
   id="svg3699"
   xml:space="preserve"
   width="2081.2"
   height="2081.2002"
   viewBox="0 0 2081.2 2081.2002"
   sodipodi:docname="clock.svg"
   inkscape:version="0.92.2 (5c3e80d, 2017-08-06)"><metadata
     id="metadata3705"><rdf:RDF><cc:Work
         rdf:about=""><dc:format>image/svg+xml</dc:format><dc:type
           rdf:resource="http://purl.org/dc/dcmitype/StillImage" /></cc:Work></rdf:RDF></metadata><defs
     id="defs3703"><clipPath
       clipPathUnits="userSpaceOnUse"
       id="clipPath3715"><path
         d="M 0,0 V 2376 H 3672 V 0 H 0"
         id="path3713"
         inkscape:connector-curvature="0" /></clipPath><clipPath
       clipPathUnits="userSpaceOnUse"
       id="clipPath3757"><path
         d="M 0,0 V 2376 H 3672 V 0 H 0"
         id="path3755"
         inkscape:connector-curvature="0" /></clipPath></defs><sodipodi:namedview
     pagecolor="#ffffff"
     bordercolor="#666666"
     borderopacity="1"
     objecttolerance="10"
     gridtolerance="10"
     guidetolerance="10"
     inkscape:pageopacity="0"
     inkscape:pageshadow="2"
     inkscape:window-width="1920"
     inkscape:window-height="1017"
     id="namedview3701"
     showgrid="false"
     inkscape:zoom="0.25"
     inkscape:cx="866.20911"
     inkscape:cy="1408.7326"
     inkscape:window-x="-8"
     inkscape:window-y="-8"
     inkscape:window-maximized="1"
     inkscape:current-layer="g3753" /><g
     id="g3707"
     inkscape:groupmode="layer"
     inkscape:label="clock"
     transform="matrix(1.3333333,0,0,-1.3333333,-566.8523,2090.8156)"><g
       id="g3751"
       transform="translate(7.9062859,-2.6354286)"><g
         id="g3753"
         clip-path="url(#clipPath3757)"><path
           style="fill:#000000;stroke-width:0.40773857"
           d="m 539.86568,1101.4124 c -14.05135,-0.3386 -28.02333,-6.2917 -37.34401,-16.917 -14.93802,-15.228 -18.22072,-40.114 -8.31212,-58.903 7.58109,-14.9919 22.68727,-25.88557 39.40418,-28.09212 7.81006,-1.18749 15.92043,-0.21975 23.43979,2.10118 20.68963,6.48284 36.12102,27.06364 35.88215,48.80034 0.92239,22.284 -14.68027,43.8015 -35.92361,50.4144 -5.52681,1.7199 -11.34665,2.7192 -17.14638,2.5962 z"
           id="path5181-6-4"
           inkscape:connector-curvature="0" /><path
           style="fill:#000000;stroke-width:0.40773857"
           d="m 530.22523,595.09834 c -14.05134,-0.33867 -28.02332,-6.29172 -37.34402,-16.9171 -14.938,-15.22794 -18.2207,-40.11385 -8.31211,-58.90298 7.5811,-14.99184 22.68728,-25.88549 39.40417,-28.09201 7.81008,-1.18759 15.92045,-0.21986 23.43981,2.10115 20.68962,6.48279 36.12101,27.06364 35.88213,48.80036 0.9224,22.28394 -14.68025,43.80144 -35.9236,50.41434 -5.52681,1.71994 -11.34665,2.71923 -17.14638,2.59624 z"
           id="path5181-6-8"
           inkscape:connector-curvature="0" /><path
           style="fill:#000000;stroke-width:0.40773857"
           d="m 857.44333,220.01588 c -14.05133,-0.33867 -28.02334,-6.29172 -37.34399,-16.9171 -14.93799,-15.22794 -18.22068,-40.11385 -8.31217,-58.90297 7.58113,-14.99185 22.68736,-25.8855 39.40423,-28.09202 7.81008,-1.18758 15.92042,-0.21985 23.43975,2.10116 20.68968,6.48278 36.12104,27.06364 35.88219,48.80036 0.9224,22.28394 -14.68024,43.80143 -35.92362,50.41433 -5.52685,1.71994 -11.34661,2.71923 -17.14639,2.59624 z"
           id="path5181-6-7"
           inkscape:connector-curvature="0" /><path
           style="fill:#000000;stroke-width:0.40773857"
           d="m 1362.011,149.77285 c -14.0513,-0.33867 -28.0233,-6.29172 -37.344,-16.91711 -14.938,-15.22793 -18.2207,-40.113839 -8.3121,-58.902965 7.5811,-14.991848 22.6872,-25.885498 39.4042,-28.092019 7.8101,-1.187582 15.9204,-0.219852 23.4398,2.101158 20.6896,6.482783 36.121,27.06364 35.8821,48.80036 0.9224,22.283936 -14.6803,43.801426 -35.9236,50.414336 -5.5268,1.71993 -11.3467,2.71923 -17.1464,2.59624 z"
           id="path5181-6-17"
           inkscape:connector-curvature="0" /><path
           style="fill:#000000;stroke-width:0.40773857"
           d="m 1774.0876,435.58486 c -14.0514,-0.33866 -28.0234,-6.29171 -37.344,-16.91709 -14.9381,-15.22795 -18.2208,-40.11385 -8.3122,-58.90298 7.5811,-14.99185 22.6873,-25.88551 39.4042,-28.09202 7.81,-1.18758 15.9204,-0.21985 23.4398,2.10116 20.6896,6.48278 36.121,27.06364 35.8822,48.80036 0.9224,22.28394 -14.6804,43.80144 -35.9236,50.41433 -5.5269,1.71995 -11.3468,2.71924 -17.1464,2.59624 z"
           id="path5181-6-3"
           inkscape:connector-curvature="0" /><path
           style="fill:#000000;stroke-width:0.40773857"
           d="m 1899.6226,922.95586 c -14.0513,-0.33864 -28.0233,-6.29168 -37.3439,-16.91704 -14.938,-15.22796 -18.2208,-40.11383 -8.3122,-58.903 7.5811,-14.99184 22.6873,-25.88553 39.4042,-28.09198 7.8101,-1.1876 15.9204,-0.21986 23.4398,2.10107 20.6896,6.48285 36.121,27.06373 35.8821,48.80038 0.9224,22.28398 -14.6802,43.80147 -35.9236,50.41436 -5.5268,1.71994 -11.3467,2.71921 -17.1464,2.59621 z"
           id="path5181-6-1"
           inkscape:connector-curvature="0" /><path
           style="fill:#000000;stroke-width:0.40773857"
           d="m 1669.0649,1369.7125 c -14.0513,-0.3386 -28.0233,-6.2917 -37.344,-16.9171 -14.938,-15.2279 -18.2207,-40.1139 -8.3121,-58.9029 7.5811,-14.9919 22.6873,-25.8856 39.4042,-28.0921 7.8101,-1.1875 15.9204,-0.2199 23.4397,2.1012 20.6897,6.4828 36.1211,27.0636 35.8822,48.8003 0.9224,22.284 -14.6802,43.8015 -35.9236,50.4144 -5.5268,1.7199 -11.3466,2.7192 -17.1464,2.5962 z"
           id="path5181-6-6"
           inkscape:connector-curvature="0" /><path
           style="fill:#000000;stroke-width:0.40773857"
           d="m 1196.2649,1550.6449 c -14.0514,-0.3386 -28.0233,-6.2917 -37.344,-16.9171 -14.938,-15.2279 -18.2207,-40.1138 -8.3121,-58.9029 7.581,-14.9919 22.6873,-25.8856 39.4042,-28.092 7.81,-1.1876 15.9204,-0.2199 23.4398,2.1011 20.6896,6.4828 36.1209,27.0637 35.8821,48.8003 0.9224,22.284 -14.6802,43.8015 -35.9236,50.4144 -5.5268,1.7199 -11.3466,2.7192 -17.1464,2.5962 z"
           id="path5181-6"
           inkscape:connector-curvature="0" /><path
           style="fill:#000000;stroke-width:0.40773857"
           d="m 879.42696,1474.165 c -14.05124,-0.3386 -28.02325,-6.2917 -37.34399,-16.917 -14.93808,-15.228 -18.22078,-40.114 -8.31207,-58.903 7.58103,-14.9919 22.68716,-25.8856 39.40403,-28.0921 7.81018,-1.1875 15.92052,-0.2199 23.43995,2.1012 20.68958,6.4828 36.12094,27.0636 35.88219,48.8003 0.9223,22.284 -14.68034,43.8015 -35.92372,50.4144 -5.52685,1.7199 -11.34661,2.7192 -17.14639,2.5962 z"
           id="path5181"
           inkscape:connector-curvature="0" /><path
           d="m 1229.5693,1359.6566 4.7342,77.9754 7.7973,-0.557 -4.7341,-77.6969 -7.7974,0.2785"
           style="fill:none;stroke:#000000;stroke-width:1.11393404;stroke-linecap:round;stroke-linejoin:round;stroke-miterlimit:10;stroke-dasharray:none;stroke-opacity:1"
           id="path4191"
           inkscape:connector-curvature="0" /><path
           d="m 1265.2152,1356.5933 9.747,77.4184 7.7973,-1.1139 -9.7469,-77.1398 -7.7974,0.8353"
           style="fill:none;stroke:#000000;stroke-width:1.11393404;stroke-linecap:round;stroke-linejoin:round;stroke-miterlimit:10;stroke-dasharray:none;stroke-opacity:1"
           id="path4193"
           inkscape:connector-curvature="0" /><path
           d="m 1300.5825,1351.3022 14.7597,76.583 7.519,-1.3925 -14.4811,-76.583 -7.7976,1.3925"
           style="fill:none;stroke:#000000;stroke-width:1.11393404;stroke-linecap:round;stroke-linejoin:round;stroke-miterlimit:10;stroke-dasharray:none;stroke-opacity:1"
           id="path4195"
           inkscape:connector-curvature="0" /><path
           d="m 1335.6714,1343.7831 19.4939,75.469 7.519,-1.9494 -19.4938,-75.4689 -7.5191,1.9493"
           style="fill:none;stroke:#000000;stroke-width:1.11393404;stroke-linecap:round;stroke-linejoin:round;stroke-miterlimit:10;stroke-dasharray:none;stroke-opacity:1"
           id="path4197"
           inkscape:connector-curvature="0" /><path
           d="m 1370.2034,1334.0362 23.9496,74.0766 7.519,-2.5064 -24.228,-74.0767 -7.2406,2.5065"
           style="fill:none;stroke:#000000;stroke-width:1.11393404;stroke-linecap:round;stroke-linejoin:round;stroke-miterlimit:10;stroke-dasharray:none;stroke-opacity:1"
           id="path4199"
           inkscape:connector-curvature="0" /><path
           d="m 1403.8999,1322.0613 28.6839,72.4057 7.2404,-2.7848 -28.6837,-72.4057 -7.2406,2.7848"
           style="fill:none;stroke:#000000;stroke-width:1.11393404;stroke-linecap:round;stroke-linejoin:round;stroke-miterlimit:10;stroke-dasharray:none;stroke-opacity:1"
           id="path4201"
           inkscape:connector-curvature="0" /><path
           d="m 1437.0393,1308.1372 33.1397,70.4563 6.9621,-3.3418 -33.1398,-70.4563 -6.962,3.3418"
           style="fill:none;stroke:#000000;stroke-width:1.11393404;stroke-linecap:round;stroke-linejoin:round;stroke-miterlimit:10;stroke-dasharray:none;stroke-opacity:1"
           id="path4203"
           inkscape:connector-curvature="0" /><path
           d="m 1469.065,1291.9851 37.5951,68.2283 6.6838,-3.6201 -37.5953,-68.507 -6.6836,3.8988"
           style="fill:none;stroke:#000000;stroke-width:1.11393404;stroke-linecap:round;stroke-linejoin:round;stroke-miterlimit:10;stroke-dasharray:none;stroke-opacity:1"
           id="path4205"
           inkscape:connector-curvature="0" /><path
           d="m 1499.9767,1273.8837 41.7726,66.0007 6.6834,-4.1774 -41.7726,-66.0007 -6.6834,4.1774"
           style="fill:none;stroke:#000000;stroke-width:1.11393404;stroke-linecap:round;stroke-linejoin:round;stroke-miterlimit:10;stroke-dasharray:none;stroke-opacity:1"
           id="path4207"
           inkscape:connector-curvature="0" /><path
           d="m 1529.7744,1254.1114 45.6714,62.9372 6.4051,-4.4557 -45.9498,-63.2156 -6.1267,4.7341"
           style="fill:none;stroke:#000000;stroke-width:1.11393404;stroke-linecap:round;stroke-linejoin:round;stroke-miterlimit:10;stroke-dasharray:none;stroke-opacity:1"
           id="path4209"
           inkscape:connector-curvature="0" /><path
           d="m 1558.1798,1232.1112 49.8485,60.1524 5.8482,-5.0127 -49.5701,-60.1524 -6.1266,5.0127"
           style="fill:none;stroke:#000000;stroke-width:1.11393404;stroke-linecap:round;stroke-linejoin:round;stroke-miterlimit:10;stroke-dasharray:none;stroke-opacity:1"
           id="path4211"
           inkscape:connector-curvature="0" /><path
           d="m 1585.1926,1208.7186 53.4689,56.8106 5.5696,-5.2912 -53.1903,-56.8107 -5.8482,5.2913"
           style="fill:none;stroke:#000000;stroke-width:1.11393404;stroke-linecap:round;stroke-linejoin:round;stroke-miterlimit:10;stroke-dasharray:none;stroke-opacity:1"
           id="path4213"
           inkscape:connector-curvature="0" /><path
           d="m 1610.8131,1183.6551 56.8107,53.1903 5.2911,-5.5697 -56.8104,-53.4688 -5.2914,5.8482"
           style="fill:none;stroke:#000000;stroke-width:1.11393404;stroke-linecap:round;stroke-linejoin:round;stroke-miterlimit:10;stroke-dasharray:none;stroke-opacity:1"
           id="path4215"
           inkscape:connector-curvature="0" /><path
           d="m 1634.7627,1156.9207 59.8738,49.57 5.013,-6.1266 -60.1524,-49.5701 -4.7344,6.1267"
           style="fill:none;stroke:#000000;stroke-width:1.11393404;stroke-linecap:round;stroke-linejoin:round;stroke-miterlimit:10;stroke-dasharray:none;stroke-opacity:1"
           id="path4217"
           inkscape:connector-curvature="0" /><path
           d="m 1656.7629,1128.5152 63.2158,45.9499 4.4557,-6.4051 -62.9373,-45.6715 -4.7342,6.1267"
           style="fill:none;stroke:#000000;stroke-width:1.11393404;stroke-linecap:round;stroke-linejoin:round;stroke-miterlimit:10;stroke-dasharray:none;stroke-opacity:1"
           id="path4219"
           inkscape:connector-curvature="0" /><path
           d="m 1677.0922,1098.996 66.0006,42.0511 4.1772,-6.6836 -66.0004,-41.7726 -4.1774,6.4051"
           style="fill:none;stroke:#000000;stroke-width:1.11393404;stroke-linecap:round;stroke-linejoin:round;stroke-miterlimit:10;stroke-dasharray:none;stroke-opacity:1"
           id="path4221"
           inkscape:connector-curvature="0" /><path
           d="m 1695.4721,1068.3628 68.507,37.5953 3.6202,-6.6836 -68.2284,-37.5953 -3.8988,6.6836"
           style="fill:none;stroke:#000000;stroke-width:1.11393404;stroke-linecap:round;stroke-linejoin:round;stroke-miterlimit:10;stroke-dasharray:none;stroke-opacity:1"
           id="path4223"
           inkscape:connector-curvature="0" /><path
           d="m 1712.1812,1036.6157 70.4563,33.1396 3.3417,-6.9621 -70.4564,-33.1395 -3.3416,6.962"
           style="fill:none;stroke:#000000;stroke-width:1.11393404;stroke-linecap:round;stroke-linejoin:round;stroke-miterlimit:10;stroke-dasharray:none;stroke-opacity:1"
           id="path4225"
           inkscape:connector-curvature="0" /><path
           d="m 1726.6623,1003.7547 72.4055,28.6838 2.7851,-7.2406 -72.406,-28.68387 -2.7846,7.24067"
           style="fill:none;stroke:#000000;stroke-width:1.11393404;stroke-linecap:round;stroke-linejoin:round;stroke-miterlimit:10;stroke-dasharray:none;stroke-opacity:1"
           id="path4227"
           inkscape:connector-curvature="0" /><path
           d="m 1738.9156,970.05814 74.0764,24.22799 2.5067,-7.51894 -74.0766,-23.94957 -2.5065,7.24052"
           style="fill:none;stroke:#000000;stroke-width:1.11393404;stroke-linecap:round;stroke-linejoin:round;stroke-miterlimit:10;stroke-dasharray:none;stroke-opacity:1"
           id="path4229"
           inkscape:connector-curvature="0" /><path
           d="m 1749.2194,935.80472 75.4691,19.49377 1.9494,-7.51904 -75.4691,-19.49387 -1.9494,7.51914"
           style="fill:none;stroke:#000000;stroke-width:1.11393404;stroke-linecap:round;stroke-linejoin:round;stroke-miterlimit:10;stroke-dasharray:none;stroke-opacity:1"
           id="path4231"
           inkscape:connector-curvature="0" /><path
           d="m 1757.2953,900.99427 76.583,14.48104 1.3925,-7.51903 -76.583,-14.75956 -1.3925,7.79755"
           style="fill:none;stroke:#000000;stroke-width:1.11393404;stroke-linecap:round;stroke-linejoin:round;stroke-miterlimit:10;stroke-dasharray:none;stroke-opacity:1"
           id="path4233"
           inkscape:connector-curvature="0" /><path
           d="m 1763.1436,865.62679 77.14,9.74694 1.114,-7.79745 -77.4185,-9.74703 -0.8355,7.79754"
           style="fill:none;stroke:#000000;stroke-width:1.11393404;stroke-linecap:round;stroke-linejoin:round;stroke-miterlimit:10;stroke-dasharray:none;stroke-opacity:1"
           id="path4235"
           inkscape:connector-curvature="0" /><path
           d="m 1766.7641,829.98091 77.6966,4.73431 0.5571,-7.79765 -77.9754,-4.73421 -0.2783,7.79755"
           style="fill:none;stroke:#000000;stroke-width:1.11393404;stroke-linecap:round;stroke-linejoin:round;stroke-miterlimit:10;stroke-dasharray:none;stroke-opacity:1"
           id="path4237"
           inkscape:connector-curvature="0" /><path
           d="m 1768.1564,794.05661 h 77.9753 v -7.79755 h -77.9753 v 7.79755"
           style="fill:none;stroke:#000000;stroke-width:1.11393404;stroke-linecap:round;stroke-linejoin:round;stroke-miterlimit:10;stroke-dasharray:none;stroke-opacity:1"
           id="path4239"
           inkscape:connector-curvature="0" /><path
           d="m 1767.0424,758.13221 77.9754,-4.73431 -0.5571,-7.79745 -77.6966,4.73421 0.2783,7.79755"
           style="fill:none;stroke:#000000;stroke-width:1.11393404;stroke-linecap:round;stroke-linejoin:round;stroke-miterlimit:10;stroke-dasharray:none;stroke-opacity:1"
           id="path4241"
           inkscape:connector-curvature="0" /><path
           d="m 1763.9791,722.4863 77.4185,-9.74691 -1.114,-7.79751 -77.14,9.74691 0.8355,7.79751"
           style="fill:none;stroke:#000000;stroke-width:1.11393404;stroke-linecap:round;stroke-linejoin:round;stroke-miterlimit:10;stroke-dasharray:none;stroke-opacity:1"
           id="path4243"
           inkscape:connector-curvature="0" /><path
           d="m 1758.6878,687.11891 76.583,-14.75958 -1.3925,-7.51914 -76.583,14.48123 1.3925,7.79749"
           style="fill:none;stroke:#000000;stroke-width:1.11393404;stroke-linecap:round;stroke-linejoin:round;stroke-miterlimit:10;stroke-dasharray:none;stroke-opacity:1"
           id="path4245"
           inkscape:connector-curvature="0" /><path
           d="m 1751.1688,652.03 75.4691,-19.21532 -1.9494,-7.79761 -75.4691,19.49391 1.9494,7.51902"
           style="fill:none;stroke:#000000;stroke-width:1.11393404;stroke-linecap:round;stroke-linejoin:round;stroke-miterlimit:10;stroke-dasharray:none;stroke-opacity:1"
           id="path4247"
           inkscape:connector-curvature="0" /><path
           d="m 1741.4221,617.49804 74.0766,-23.94955 -2.5067,-7.51912 -74.0764,24.22811 2.5065,7.24056"
           style="fill:none;stroke:#000000;stroke-width:1.11393404;stroke-linecap:round;stroke-linejoin:round;stroke-miterlimit:10;stroke-dasharray:none;stroke-opacity:1"
           id="path4249"
           inkscape:connector-curvature="0" /><path
           d="m 1729.4469,583.8015 72.406,-28.68377 -2.7851,-7.24057 -72.4055,28.68377 2.7846,7.24057"
           style="fill:none;stroke:#000000;stroke-width:1.11393404;stroke-linecap:round;stroke-linejoin:round;stroke-miterlimit:10;stroke-dasharray:none;stroke-opacity:1"
           id="path4251"
           inkscape:connector-curvature="0" /><path
           d="m 1715.5228,550.66198 70.4564,-33.13951 -3.3417,-6.96209 -70.4563,33.13951 3.3416,6.96209"
           style="fill:none;stroke:#000000;stroke-width:1.11393404;stroke-linecap:round;stroke-linejoin:round;stroke-miterlimit:10;stroke-dasharray:none;stroke-opacity:1"
           id="path4253"
           inkscape:connector-curvature="0" /><path
           d="m 1699.3709,518.63636 68.2284,-37.31677 -3.6202,-6.96209 -68.507,37.59525 3.8988,6.68361"
           style="fill:none;stroke:#000000;stroke-width:1.11393404;stroke-linecap:round;stroke-linejoin:round;stroke-miterlimit:10;stroke-dasharray:none;stroke-opacity:1"
           id="path4255"
           inkscape:connector-curvature="0" /><path
           d="m 1681.2696,487.72473 66.0004,-41.77253 -4.1772,-6.40514 -66.0006,41.77253 4.1774,6.40514"
           style="fill:none;stroke:#000000;stroke-width:1.11393404;stroke-linecap:round;stroke-linejoin:round;stroke-miterlimit:10;stroke-dasharray:none;stroke-opacity:1"
           id="path4257"
           inkscape:connector-curvature="0" /><path
           d="m 1661.4971,457.92697 62.9373,-45.67132 -4.4557,-6.40504 -63.2158,45.94979 4.7342,6.12657"
           style="fill:none;stroke:#000000;stroke-width:1.11393404;stroke-linecap:round;stroke-linejoin:round;stroke-miterlimit:10;stroke-dasharray:none;stroke-opacity:1"
           id="path4259"
           inkscape:connector-curvature="0" /><path
           d="m 1639.4971,429.52168 60.1524,-49.57007 -5.013,-6.12663 -59.8738,49.57002 4.7344,6.12668"
           style="fill:none;stroke:#000000;stroke-width:1.11393404;stroke-linecap:round;stroke-linejoin:round;stroke-miterlimit:10;stroke-dasharray:none;stroke-opacity:1"
           id="path4261"
           inkscape:connector-curvature="0" /><path
           d="m 1616.1045,402.50874 56.8104,-53.46881 -5.2911,-5.56964 -56.8107,53.46884 5.2914,5.56961"
           style="fill:none;stroke:#000000;stroke-width:1.11393404;stroke-linecap:round;stroke-linejoin:round;stroke-miterlimit:10;stroke-dasharray:none;stroke-opacity:1"
           id="path4263"
           inkscape:connector-curvature="0" /><path
           d="m 1591.0408,376.88828 53.1903,-56.81061 -5.5696,-5.29119 -53.4689,56.81063 5.8482,5.29117"
           style="fill:none;stroke:#000000;stroke-width:1.11393404;stroke-linecap:round;stroke-linejoin:round;stroke-miterlimit:10;stroke-dasharray:none;stroke-opacity:1"
           id="path4265"
           inkscape:connector-curvature="0" /><path
           d="m 1564.3064,353.2172 49.5701,-60.15245 -5.8482,-5.01269 -49.8485,60.15245 6.1266,5.01269"
           style="fill:none;stroke:#000000;stroke-width:1.11393404;stroke-linecap:round;stroke-linejoin:round;stroke-miterlimit:10;stroke-dasharray:none;stroke-opacity:1"
           id="path4267"
           inkscape:connector-curvature="0" /><path
           d="m 1535.9011,330.93852 45.9498,-63.21577 -6.4051,-4.45571 -45.6714,63.21574 6.1267,4.45574"
           style="fill:none;stroke:#000000;stroke-width:1.11393404;stroke-linecap:round;stroke-linejoin:round;stroke-miterlimit:10;stroke-dasharray:none;stroke-opacity:1"
           id="path4269"
           inkscape:connector-curvature="0" /><path
           d="m 1506.6601,310.6092 41.7726,-65.72206 -6.6834,-4.17727 -41.7726,65.72212 6.6834,4.17721"
           style="fill:none;stroke:#000000;stroke-width:1.11393404;stroke-linecap:round;stroke-linejoin:round;stroke-miterlimit:10;stroke-dasharray:none;stroke-opacity:1"
           id="path4271"
           inkscape:connector-curvature="0" /><path
           d="m 1475.7486,292.22932 37.5953,-68.50697 -6.6838,-3.62028 -37.5951,68.22847 6.6836,3.89878"
           style="fill:none;stroke:#000000;stroke-width:1.11393404;stroke-linecap:round;stroke-linejoin:round;stroke-miterlimit:10;stroke-dasharray:none;stroke-opacity:1"
           id="path4273"
           inkscape:connector-curvature="0" /><path
           d="m 1444.0013,275.5203 33.1398,-70.45634 -6.9621,-3.34177 -33.1397,70.73477 6.962,3.06334"
           style="fill:none;stroke:#000000;stroke-width:1.11393404;stroke-linecap:round;stroke-linejoin:round;stroke-miterlimit:10;stroke-dasharray:none;stroke-opacity:1"
           id="path4275"
           inkscape:connector-curvature="0" /><path
           d="m 1411.1405,261.31765 28.6837,-72.68422 -7.2404,-2.78481 -28.6839,72.40569 7.2406,3.06334"
           style="fill:none;stroke:#000000;stroke-width:1.11393404;stroke-linecap:round;stroke-linejoin:round;stroke-miterlimit:10;stroke-dasharray:none;stroke-opacity:1"
           id="path4277"
           inkscape:connector-curvature="0" /><path
           d="m 1377.444,248.78589 24.228,-74.07663 -7.519,-2.50633 -23.9496,74.07661 7.2406,2.50635"
           style="fill:none;stroke:#000000;stroke-width:1.11393404;stroke-linecap:round;stroke-linejoin:round;stroke-miterlimit:10;stroke-dasharray:none;stroke-opacity:1"
           id="path4279"
           inkscape:connector-curvature="0" /><path
           d="m 1343.1905,238.48198 19.4938,-75.46901 -7.519,-1.9494 -19.4939,75.46905 7.5191,1.94936"
           style="fill:none;stroke:#000000;stroke-width:1.11393404;stroke-linecap:round;stroke-linejoin:round;stroke-miterlimit:10;stroke-dasharray:none;stroke-opacity:1"
           id="path4281"
           inkscape:connector-curvature="0" /><path
           d="m 1308.3801,230.40596 14.4811,-76.58296 -7.519,-1.3924 -14.7597,76.58296 7.7976,1.3924"
           style="fill:none;stroke:#000000;stroke-width:1.11393404;stroke-linecap:round;stroke-linejoin:round;stroke-miterlimit:10;stroke-dasharray:none;stroke-opacity:1"
           id="path4283"
           inkscape:connector-curvature="0" /><path
           d="m 1273.0126,224.55781 9.7469,-77.1399 -7.7973,-1.11393 -9.747,77.41837 7.7974,0.83546"
           style="fill:none;stroke:#000000;stroke-width:1.11393404;stroke-linecap:round;stroke-linejoin:round;stroke-miterlimit:10;stroke-dasharray:none;stroke-opacity:1"
           id="path4285"
           inkscape:connector-curvature="0" /><path
           d="m 1237.3667,220.93754 4.7341,-77.6969 -7.7973,-0.55695 -4.7342,77.97537 7.7974,0.27848"
           style="fill:none;stroke:#000000;stroke-width:1.11393404;stroke-linecap:round;stroke-linejoin:round;stroke-miterlimit:10;stroke-dasharray:none;stroke-opacity:1"
           id="path4287"
           inkscape:connector-curvature="0" /><path
           d="m 1201.4424,219.8236 v -77.97537 h -7.7975 v 77.97537 h 7.7975"
           style="fill:none;stroke:#000000;stroke-width:1.11393404;stroke-linecap:round;stroke-linejoin:round;stroke-miterlimit:10;stroke-dasharray:none;stroke-opacity:1"
           id="path4289"
           inkscape:connector-curvature="0" /><path
           d="m 1165.5178,220.65906 -4.734,-77.97537 -7.7975,0.55695 4.7342,77.6969 7.7973,-0.27848"
           style="fill:none;stroke:#000000;stroke-width:1.11393404;stroke-linecap:round;stroke-linejoin:round;stroke-miterlimit:10;stroke-dasharray:none;stroke-opacity:1"
           id="path4291"
           inkscape:connector-curvature="0" /><path
           d="m 1129.8721,223.72235 -9.7469,-77.41837 -7.7974,1.11393 9.7468,77.1399 7.7975,-0.83546"
           style="fill:none;stroke:#000000;stroke-width:1.11393404;stroke-linecap:round;stroke-linejoin:round;stroke-miterlimit:10;stroke-dasharray:none;stroke-opacity:1"
           id="path4293"
           inkscape:connector-curvature="0" /><path
           d="m 1094.5048,229.01356 -14.4811,-76.58296 -7.7976,1.3924 14.4811,76.58296 7.7976,-1.3924"
           style="fill:none;stroke:#000000;stroke-width:1.11393404;stroke-linecap:round;stroke-linejoin:round;stroke-miterlimit:10;stroke-dasharray:none;stroke-opacity:1"
           id="path4295"
           inkscape:connector-curvature="0" /><path
           d="m 1059.4158,236.53262 -19.2155,-75.46905 -7.7974,1.9494 19.4939,75.46901 7.519,-1.94936"
           style="fill:none;stroke:#000000;stroke-width:1.11393404;stroke-linecap:round;stroke-linejoin:round;stroke-miterlimit:10;stroke-dasharray:none;stroke-opacity:1"
           id="path4297"
           inkscape:connector-curvature="0" /><path
           d="m 1024.8839,246.27954 -23.9496,-74.07661 -7.519,2.50633 24.228,74.07663 7.2406,-2.50635"
           style="fill:none;stroke:#000000;stroke-width:1.11393404;stroke-linecap:round;stroke-linejoin:round;stroke-miterlimit:10;stroke-dasharray:none;stroke-opacity:1"
           id="path4299"
           inkscape:connector-curvature="0" /><path
           d="m 991.1874,258.25431 -28.68382,-72.40569 -7.24062,2.78481 28.68394,72.68422 7.2405,-3.06334"
           style="fill:none;stroke:#000000;stroke-width:1.11393404;stroke-linecap:round;stroke-linejoin:round;stroke-miterlimit:10;stroke-dasharray:none;stroke-opacity:1"
           id="path4301"
           inkscape:connector-curvature="0" /><path
           d="m 958.32649,272.45696 -33.41818,-70.73477 -6.96211,3.34177 33.13967,70.45634 7.24062,-3.06334"
           style="fill:none;stroke:#000000;stroke-width:1.11393404;stroke-linecap:round;stroke-linejoin:round;stroke-miterlimit:10;stroke-dasharray:none;stroke-opacity:1"
           id="path4303"
           inkscape:connector-curvature="0" /><path
           d="m 926.02226,288.33054 -37.31677,-68.22847 -6.96201,3.62028 37.59518,68.50697 6.6836,-3.89878"
           style="fill:none;stroke:#000000;stroke-width:1.11393404;stroke-linecap:round;stroke-linejoin:round;stroke-miterlimit:10;stroke-dasharray:none;stroke-opacity:1"
           id="path4305"
           inkscape:connector-curvature="0" /><path
           d="m 895.11058,306.43199 -41.77256,-65.72212 -6.40499,4.17727 41.77246,65.72206 6.40509,-4.17721"
           style="fill:none;stroke:#000000;stroke-width:1.11393404;stroke-linecap:round;stroke-linejoin:round;stroke-miterlimit:10;stroke-dasharray:none;stroke-opacity:1"
           id="path4307"
           inkscape:connector-curvature="0" /><path
           d="m 865.31295,326.48278 -45.67133,-63.21574 -6.40519,4.45571 45.94985,63.21577 6.12667,-4.45574"
           style="fill:none;stroke:#000000;stroke-width:1.11393404;stroke-linecap:round;stroke-linejoin:round;stroke-miterlimit:10;stroke-dasharray:none;stroke-opacity:1"
           id="path4309"
           inkscape:connector-curvature="0" /><path
           d="m 836.90749,348.20451 -49.57001,-60.15245 -6.12667,5.01269 49.84862,60.15245 5.84806,-5.01269"
           style="fill:none;stroke:#000000;stroke-width:1.11393404;stroke-linecap:round;stroke-linejoin:round;stroke-miterlimit:10;stroke-dasharray:none;stroke-opacity:1"
           id="path4311"
           inkscape:connector-curvature="0" /><path
           d="m 809.89468,371.59711 -53.46878,-56.81063 -5.56976,5.29119 53.4688,56.81061 5.56974,-5.29117"
           style="fill:none;stroke:#000000;stroke-width:1.11393404;stroke-linecap:round;stroke-linejoin:round;stroke-miterlimit:10;stroke-dasharray:none;stroke-opacity:1"
           id="path4313"
           inkscape:connector-curvature="0" /><path
           d="m 784.27424,396.93913 -56.81071,-53.46884 -5.29116,5.56964 56.81064,53.46881 5.29123,-5.56961"
           style="fill:none;stroke:#000000;stroke-width:1.11393404;stroke-linecap:round;stroke-linejoin:round;stroke-miterlimit:10;stroke-dasharray:none;stroke-opacity:1"
           id="path4315"
           inkscape:connector-curvature="0" /><path
           d="m 760.60299,423.395 -60.15229,-49.57002 -5.01278,6.12663 60.15245,49.57007 5.01262,-6.12668"
           style="fill:none;stroke:#000000;stroke-width:1.11393404;stroke-linecap:round;stroke-linejoin:round;stroke-miterlimit:10;stroke-dasharray:none;stroke-opacity:1"
           id="path4317"
           inkscape:connector-curvature="0" /><path
           d="m 738.32442,451.8004 -62.93727,-45.94979 -4.73421,6.40504 63.21573,45.67132 4.45575,-6.12657"
           style="fill:none;stroke:#000000;stroke-width:1.11393404;stroke-linecap:round;stroke-linejoin:round;stroke-miterlimit:10;stroke-dasharray:none;stroke-opacity:1"
           id="path4319"
           inkscape:connector-curvature="0" /><path
           d="m 717.99509,481.31959 -65.72206,-41.77253 -4.17728,6.40514 65.72208,41.77253 4.17726,-6.40514"
           style="fill:none;stroke:#000000;stroke-width:1.11393404;stroke-linecap:round;stroke-linejoin:round;stroke-miterlimit:10;stroke-dasharray:none;stroke-opacity:1"
           id="path4321"
           inkscape:connector-curvature="0" /><path
           d="m 699.61518,511.95275 -68.50689,-37.59525 -3.62033,6.96209 68.22852,37.31677 3.8987,-6.68361"
           style="fill:none;stroke:#000000;stroke-width:1.11393404;stroke-linecap:round;stroke-linejoin:round;stroke-miterlimit:10;stroke-dasharray:none;stroke-opacity:1"
           id="path4323"
           inkscape:connector-curvature="0" /><path
           d="m 683.18466,543.69989 -70.73476,-33.13951 -3.34186,6.96209 70.73486,33.13951 3.34176,-6.96209"
           style="fill:none;stroke:#000000;stroke-width:1.11393404;stroke-linecap:round;stroke-linejoin:round;stroke-miterlimit:10;stroke-dasharray:none;stroke-opacity:1"
           id="path4325"
           inkscape:connector-curvature="0" /><path
           d="m 668.70355,576.56093 -72.68416,-28.68377 -2.78491,7.24057 72.40578,28.68377 3.06329,-7.24057"
           style="fill:none;stroke:#000000;stroke-width:1.11393404;stroke-linecap:round;stroke-linejoin:round;stroke-miterlimit:10;stroke-dasharray:none;stroke-opacity:1"
           id="path4327"
           inkscape:connector-curvature="0" /><path
           d="m 656.17173,610.25748 -74.07652,-24.22811 -2.50644,7.51912 74.35518,23.94955 2.22778,-7.24056"
           style="fill:none;stroke:#000000;stroke-width:1.11393404;stroke-linecap:round;stroke-linejoin:round;stroke-miterlimit:10;stroke-dasharray:none;stroke-opacity:1"
           id="path4329"
           inkscape:connector-curvature="0" /><path
           d="m 645.86789,644.51098 -75.46898,-19.49391 -1.94941,7.79761 75.46898,19.21532 1.94941,-7.51902"
           style="fill:none;stroke:#000000;stroke-width:1.11393404;stroke-linecap:round;stroke-linejoin:round;stroke-miterlimit:10;stroke-dasharray:none;stroke-opacity:1"
           id="path4331"
           inkscape:connector-curvature="0" /><path
           d="m 637.79191,679.32142 -76.58296,-14.48123 -1.39246,7.51914 76.58296,14.75958 1.39246,-7.79749"
           style="fill:none;stroke:#000000;stroke-width:1.11393404;stroke-linecap:round;stroke-linejoin:round;stroke-miterlimit:10;stroke-dasharray:none;stroke-opacity:1"
           id="path4333"
           inkscape:connector-curvature="0" /><path
           d="m 631.94371,714.68879 -77.13991,-9.74691 -1.11398,7.79751 77.41847,9.74691 0.83542,-7.79751"
           style="fill:none;stroke:#000000;stroke-width:1.11393404;stroke-linecap:round;stroke-linejoin:round;stroke-miterlimit:10;stroke-dasharray:none;stroke-opacity:1"
           id="path4335"
           inkscape:connector-curvature="0" /><path
           d="m 628.60194,750.33466 -77.97541,-4.73421 -0.55695,7.79745 77.97533,4.73431 0.55703,-7.79755"
           style="fill:none;stroke:#000000;stroke-width:1.11393404;stroke-linecap:round;stroke-linejoin:round;stroke-miterlimit:10;stroke-dasharray:none;stroke-opacity:1"
           id="path4337"
           inkscape:connector-curvature="0" /><path
           d="m 627.20949,786.25906 h -77.97541 v 7.79755 h 77.97541 v -7.79755"
           style="fill:none;stroke:#000000;stroke-width:1.11393404;stroke-linecap:round;stroke-linejoin:round;stroke-miterlimit:10;stroke-dasharray:none;stroke-opacity:1"
           id="path4339"
           inkscape:connector-curvature="0" /><path
           d="m 628.04491,822.18336 -77.97533,4.73421 0.55695,7.79765 77.97541,-4.73431 -0.55703,-7.79755"
           style="fill:none;stroke:#000000;stroke-width:1.11393404;stroke-linecap:round;stroke-linejoin:round;stroke-miterlimit:10;stroke-dasharray:none;stroke-opacity:1"
           id="path4341"
           inkscape:connector-curvature="0" /><path
           d="m 631.10829,857.82925 -77.41847,9.74703 1.11398,7.79745 77.13991,-9.74694 -0.83542,-7.79754"
           style="fill:none;stroke:#000000;stroke-width:1.11393404;stroke-linecap:round;stroke-linejoin:round;stroke-miterlimit:10;stroke-dasharray:none;stroke-opacity:1"
           id="path4343"
           inkscape:connector-curvature="0" /><path
           d="m 636.39945,893.19672 -76.58296,14.75956 1.39246,7.51903 76.58296,-14.48104 -1.39246,-7.79755"
           style="fill:none;stroke:#000000;stroke-width:1.11393404;stroke-linecap:round;stroke-linejoin:round;stroke-miterlimit:10;stroke-dasharray:none;stroke-opacity:1"
           id="path4345"
           inkscape:connector-curvature="0" /><path
           d="m 643.91848,928.28558 -75.46898,19.49387 1.94941,7.51904 75.46898,-19.49377 -1.94941,-7.51914"
           style="fill:none;stroke:#000000;stroke-width:1.11393404;stroke-linecap:round;stroke-linejoin:round;stroke-miterlimit:10;stroke-dasharray:none;stroke-opacity:1"
           id="path4347"
           inkscape:connector-curvature="0" /><path
           d="m 653.94395,962.81762 -74.35518,23.94957 2.50644,7.51894 74.07652,-24.22799 -2.22778,-7.24052"
           style="fill:none;stroke:#000000;stroke-width:1.11393404;stroke-linecap:round;stroke-linejoin:round;stroke-miterlimit:10;stroke-dasharray:none;stroke-opacity:1"
           id="path4349"
           inkscape:connector-curvature="0" /><path
           d="m 665.64026,996.51403 -72.40578,28.68387 2.78491,7.2406 72.68416,-28.6838 -3.06329,-7.24067"
           style="fill:none;stroke:#000000;stroke-width:1.11393404;stroke-linecap:round;stroke-linejoin:round;stroke-miterlimit:10;stroke-dasharray:none;stroke-opacity:1"
           id="path4351"
           inkscape:connector-curvature="0" /><path
           d="m 679.8429,1029.6537 -70.73486,33.1395 3.34186,6.9621 70.73476,-33.1396 -3.34176,-6.962"
           style="fill:none;stroke:#000000;stroke-width:1.11393404;stroke-linecap:round;stroke-linejoin:round;stroke-miterlimit:10;stroke-dasharray:none;stroke-opacity:1"
           id="path4353"
           inkscape:connector-curvature="0" /><path
           d="m 695.71648,1061.6792 -68.22852,37.5953 3.62033,6.6836 68.50689,-37.5953 -3.8987,-6.6836"
           style="fill:none;stroke:#000000;stroke-width:1.11393404;stroke-linecap:round;stroke-linejoin:round;stroke-miterlimit:10;stroke-dasharray:none;stroke-opacity:1"
           id="path4355"
           inkscape:connector-curvature="0" /><path
           d="m 713.81783,1092.5909 -65.72208,41.7726 4.17728,6.6836 65.72206,-42.0511 -4.17726,-6.4051"
           style="fill:none;stroke:#000000;stroke-width:1.11393404;stroke-linecap:round;stroke-linejoin:round;stroke-miterlimit:10;stroke-dasharray:none;stroke-opacity:1"
           id="path4357"
           inkscape:connector-curvature="0" /><path
           d="m 733.86867,1122.3885 -63.21573,45.6715 4.73421,6.4051 62.93727,-45.9499 -4.45575,-6.1267"
           style="fill:none;stroke:#000000;stroke-width:1.11393404;stroke-linecap:round;stroke-linejoin:round;stroke-miterlimit:10;stroke-dasharray:none;stroke-opacity:1"
           id="path4359"
           inkscape:connector-curvature="0" /><path
           d="m 755.59037,1150.794 -60.15245,49.5701 5.01278,6.1266 60.15229,-49.57 -5.01262,-6.1267"
           style="fill:none;stroke:#000000;stroke-width:1.11393404;stroke-linecap:round;stroke-linejoin:round;stroke-miterlimit:10;stroke-dasharray:none;stroke-opacity:1"
           id="path4361"
           inkscape:connector-curvature="0" /><path
           d="m 778.98301,1177.8069 -56.81064,53.4688 5.29116,5.5697 56.81071,-53.1903 -5.29123,-5.8482"
           style="fill:none;stroke:#000000;stroke-width:1.11393404;stroke-linecap:round;stroke-linejoin:round;stroke-miterlimit:10;stroke-dasharray:none;stroke-opacity:1"
           id="path4363"
           inkscape:connector-curvature="0" /><path
           d="m 804.32494,1203.4273 -53.4688,56.8107 5.56976,5.2912 53.46878,-56.8106 -5.56974,-5.2913"
           style="fill:none;stroke:#000000;stroke-width:1.11393404;stroke-linecap:round;stroke-linejoin:round;stroke-miterlimit:10;stroke-dasharray:none;stroke-opacity:1"
           id="path4365"
           inkscape:connector-curvature="0" /><path
           d="m 831.05943,1227.0985 -49.84862,60.1524 6.12667,5.0127 49.57001,-60.1524 -5.84806,-5.0127"
           style="fill:none;stroke:#000000;stroke-width:1.11393404;stroke-linecap:round;stroke-linejoin:round;stroke-miterlimit:10;stroke-dasharray:none;stroke-opacity:1"
           id="path4367"
           inkscape:connector-curvature="0" /><path
           d="m 859.18628,1249.3773 -45.94985,63.2156 6.40519,4.4557 45.67133,-62.9372 -6.12667,-4.7341"
           style="fill:none;stroke:#000000;stroke-width:1.11393404;stroke-linecap:round;stroke-linejoin:round;stroke-miterlimit:10;stroke-dasharray:none;stroke-opacity:1"
           id="path4369"
           inkscape:connector-curvature="0" /><path
           d="m 888.70549,1269.7063 -41.77246,66.0007 6.40499,4.1774 41.77256,-66.0007 -6.40509,-4.1774"
           style="fill:none;stroke:#000000;stroke-width:1.11393404;stroke-linecap:round;stroke-linejoin:round;stroke-miterlimit:10;stroke-dasharray:none;stroke-opacity:1"
           id="path4371"
           inkscape:connector-curvature="0" /><path
           d="m 919.33866,1288.0863 -37.59518,68.507 6.96201,3.6201 37.31677,-68.2283 -6.6836,-3.8988"
           style="fill:none;stroke:#000000;stroke-width:1.11393404;stroke-linecap:round;stroke-linejoin:round;stroke-miterlimit:10;stroke-dasharray:none;stroke-opacity:1"
           id="path4373"
           inkscape:connector-curvature="0" /><path
           d="m 951.08587,1304.7954 -33.13967,70.4563 6.96211,3.3418 33.41818,-70.4563 -7.24062,-3.3418"
           style="fill:none;stroke:#000000;stroke-width:1.11393404;stroke-linecap:round;stroke-linejoin:round;stroke-miterlimit:10;stroke-dasharray:none;stroke-opacity:1"
           id="path4375"
           inkscape:connector-curvature="0" /><path
           d="m 983.9469,1319.2765 -28.68394,72.4057 7.24062,2.7848 28.68382,-72.4057 -7.2405,-2.7848"
           style="fill:none;stroke:#000000;stroke-width:1.11393404;stroke-linecap:round;stroke-linejoin:round;stroke-miterlimit:10;stroke-dasharray:none;stroke-opacity:1"
           id="path4377"
           inkscape:connector-curvature="0" /><path
           d="m 1017.6433,1331.5297 -24.228,74.0767 7.519,2.5064 23.9496,-74.0766 -7.2406,-2.5065"
           style="fill:none;stroke:#000000;stroke-width:1.11393404;stroke-linecap:round;stroke-linejoin:round;stroke-miterlimit:10;stroke-dasharray:none;stroke-opacity:1"
           id="path4379"
           inkscape:connector-curvature="0" /><path
           d="m 1051.8968,1341.8338 -19.4939,75.4689 7.7974,1.9494 19.2155,-75.469 -7.519,-1.9493"
           style="fill:none;stroke:#000000;stroke-width:1.11393404;stroke-linecap:round;stroke-linejoin:round;stroke-miterlimit:10;stroke-dasharray:none;stroke-opacity:1"
           id="path4381"
           inkscape:connector-curvature="0" /><path
           d="m 1086.7072,1349.9097 -14.4811,76.583 7.7976,1.3925 14.4811,-76.583 -7.7976,-1.3925"
           style="fill:none;stroke:#000000;stroke-width:1.11393404;stroke-linecap:round;stroke-linejoin:round;stroke-miterlimit:10;stroke-dasharray:none;stroke-opacity:1"
           id="path4383"
           inkscape:connector-curvature="0" /><path
           d="m 1122.0746,1355.758 -9.7468,77.1398 7.7974,1.1139 9.7469,-77.4184 -7.7975,-0.8353"
           style="fill:none;stroke:#000000;stroke-width:1.11393404;stroke-linecap:round;stroke-linejoin:round;stroke-miterlimit:10;stroke-dasharray:none;stroke-opacity:1"
           id="path4385"
           inkscape:connector-curvature="0" /><path
           d="m 1157.7205,1359.3781 -4.7342,77.6969 7.7975,0.557 4.734,-77.9754 -7.7973,-0.2785"
           style="fill:none;stroke:#000000;stroke-width:1.11393404;stroke-linecap:round;stroke-linejoin:round;stroke-miterlimit:10;stroke-dasharray:none;stroke-opacity:1"
           id="path4387"
           inkscape:connector-curvature="0" /><path
           d="m 1201.4424,1438.7459 v -77.9752 h -7.7975 v 77.9752 h 7.7975"
           style="fill:none;stroke:#000000;stroke-width:1.11393404;stroke-linecap:round;stroke-linejoin:round;stroke-miterlimit:10;stroke-dasharray:none;stroke-opacity:1"
           id="path4389"
           inkscape:connector-curvature="0" /><path
           d="m 1977.5759,790.29709 c 0,430.70851 -349.1472,779.87231 -779.8556,779.89311 -430.7084,0.021 -779.88911,-349.1099 -779.93038,-779.81839 -0.0413,-430.70844 349.07234,-779.90583 779.78078,-779.967771 430.7085,-0.06189 779.9226,349.035011 780.0052,779.743411"
           style="fill:none;stroke:#000000;stroke-width:1.11393404;stroke-linecap:round;stroke-linejoin:round;stroke-miterlimit:10;stroke-dasharray:none;stroke-opacity:1"
           id="path4409"
           inkscape:connector-curvature="0" /><flowRoot
           xml:space="preserve"
           id="flowRoot4847"
           style="font-style:normal;font-weight:normal;font-size:40px;line-height:1.25;font-family:sans-serif;letter-spacing:0px;word-spacing:0px;fill:#000000;fill-opacity:1;stroke:none"
           transform="matrix(0.75000002,0,0,-0.75000002,-7.9062859,1586.6355)"><flowRegion
             id="flowRegion4849"><rect
               id="rect4851"
               width="63.178669"
               height="41.000099"
               x="1529.7535"
               y="465.86438" /></flowRegion><flowPara
             id="flowPara4853">00j</flowPara><flowPara
             id="flowPara4855" /></flowRoot><text
           xml:space="preserve"
           style="font-style:normal;font-weight:normal;font-size:46.41391754px;line-height:1.25;font-family:sans-serif;letter-spacing:0px;word-spacing:0px;fill:#ffffff;fill-opacity:1;stroke:none;stroke-width:1.16034782"
           x="1152.834"
           y="-1475.1134"
           id="text4859"
           transform="scale(1,-1)"><tspan
             sodipodi:role="line"
             id="tspan4857"
             x="1152.834"
             y="-1475.1134"
             style="font-style:normal;font-variant:normal;font-weight:normal;font-stretch:normal;font-size:74.26226044px;line-height:1.25;font-family:'Courier New';-inkscape-font-specification:'Courier New';fill:#ffffff;stroke-width:1.16034782">00</tspan></text>
<text
           xml:space="preserve"
           style="font-style:normal;font-weight:normal;font-size:46.41391754px;line-height:1.25;font-family:sans-serif;letter-spacing:0px;word-spacing:0px;fill:#ffffff;fill-opacity:1;stroke:none;stroke-width:1.16034782"
           x="1625.0896"
           y="-1295.2415"
           id="text4859-6"
           transform="scale(1,-1)"><tspan
             sodipodi:role="line"
             id="tspan4857-8"
             x="1625.0896"
             y="-1295.2415"
             style="font-style:normal;font-variant:normal;font-weight:normal;font-stretch:normal;font-size:74.26226044px;line-height:1.25;font-family:'Courier New';-inkscape-font-specification:'Courier New';fill:#ffffff;stroke-width:1.16034782">10</tspan></text>
<text
           xml:space="preserve"
           style="font-style:normal;font-weight:normal;font-size:46.41391754px;line-height:1.25;font-family:sans-serif;letter-spacing:0px;word-spacing:0px;fill:#ffffff;fill-opacity:1;stroke:none;stroke-width:1.16034782"
           x="1857.5388"
           y="-848.55804"
           id="text4859-6-5"
           transform="scale(1,-1)"><tspan
             sodipodi:role="line"
             id="tspan4857-8-3"
             x="1857.5388"
             y="-848.55804"
             style="font-style:normal;font-variant:normal;font-weight:normal;font-stretch:normal;font-size:74.26226044px;line-height:1.25;font-family:'Courier New';-inkscape-font-specification:'Courier New';fill:#ffffff;stroke-width:1.16034782">20</tspan></text>
<text
           xml:space="preserve"
           style="font-style:normal;font-weight:normal;font-size:46.41391754px;line-height:1.25;font-family:sans-serif;letter-spacing:0px;word-spacing:0px;fill:#ffffff;fill-opacity:1;stroke:none;stroke-width:1.16034782"
           x="1731.3195"
           y="-360.32303"
           id="text4859-6-5-9"
           transform="scale(1,-1)"><tspan
             sodipodi:role="line"
             id="tspan4857-8-3-1"
             x="1731.3195"
             y="-360.32303"
             style="font-style:normal;font-variant:normal;font-weight:normal;font-stretch:normal;font-size:74.26226044px;line-height:1.25;font-family:'Courier New';-inkscape-font-specification:'Courier New';fill:#ffffff;stroke-width:1.16034782">30</tspan></text>
<text
           xml:space="preserve"
           style="font-style:normal;font-weight:normal;font-size:46.41391754px;line-height:1.25;font-family:sans-serif;letter-spacing:0px;word-spacing:0px;fill:#ffffff;fill-opacity:1;stroke:none;stroke-width:1.16034782"
           x="1317.0989"
           y="-77.250519"
           id="text4859-6-5-5"
           transform="scale(1,-1)"><tspan
             sodipodi:role="line"
             id="tspan4857-8-3-6"
             x="1317.0989"
             y="-77.250519"
             style="font-style:normal;font-variant:normal;font-weight:normal;font-stretch:normal;font-size:74.26226044px;line-height:1.25;font-family:'Courier New';-inkscape-font-specification:'Courier New';fill:#ffffff;stroke-width:1.16034782">40</tspan></text>
<text
           xml:space="preserve"
           style="font-style:normal;font-weight:normal;font-size:46.41391754px;line-height:1.25;font-family:sans-serif;letter-spacing:0px;word-spacing:0px;fill:#ffffff;fill-opacity:1;stroke:none;stroke-width:1.16034782"
           x="817.17719"
           y="-146.07091"
           id="text4859-6-5-53"
           transform="scale(1,-1)"><tspan
             sodipodi:role="line"
             id="tspan4857-8-3-5"
             x="817.17719"
             y="-146.07091"
             style="font-style:normal;font-variant:normal;font-weight:normal;font-stretch:normal;font-size:74.26226044px;line-height:1.25;font-family:'Courier New';-inkscape-font-specification:'Courier New';fill:#ffffff;stroke-width:1.16034782">50</tspan></text>
<text
           xml:space="preserve"
           style="font-style:normal;font-weight:normal;font-size:46.41391754px;line-height:1.25;font-family:sans-serif;letter-spacing:0px;word-spacing:0px;fill:#ffffff;fill-opacity:1;stroke:none;stroke-width:1.16034782"
           x="486.61285"
           y="-521.61304"
           id="text4859-6-5-3"
           transform="scale(1,-1)"><tspan
             sodipodi:role="line"
             id="tspan4857-8-3-8"
             x="486.61285"
             y="-521.61304"
             style="font-style:normal;font-variant:normal;font-weight:normal;font-stretch:normal;font-size:74.26226044px;line-height:1.25;font-family:'Courier New';-inkscape-font-specification:'Courier New';fill:#ffffff;stroke-width:1.16034782">60</tspan></text>
<text
           xml:space="preserve"
           style="font-style:normal;font-weight:normal;font-size:46.41391754px;line-height:1.25;font-family:sans-serif;letter-spacing:0px;word-spacing:0px;fill:#ffffff;fill-opacity:1;stroke:none;stroke-width:1.16034782"
           x="496.44824"
           y="-1025.1537"
           id="text4859-6-5-8"
           transform="scale(1,-1)"><tspan
             sodipodi:role="line"
             id="tspan4857-8-3-3"
             x="496.44824"
             y="-1025.1537"
             style="font-style:normal;font-variant:normal;font-weight:normal;font-stretch:normal;font-size:74.26226044px;line-height:1.25;font-family:'Courier New';-inkscape-font-specification:'Courier New';fill:#ffffff;stroke-width:1.16034782">70</tspan></text>
<text
           xml:space="preserve"
           style="font-style:normal;font-weight:normal;font-size:46.41391754px;line-height:1.25;font-family:sans-serif;letter-spacing:0px;word-spacing:0px;fill:#ffffff;fill-opacity:1;stroke:none;stroke-width:1.16034782"
           x="836.65472"
           y="-1400.4196"
           id="text4859-6-5-2"
           transform="scale(1,-1)"><tspan
             sodipodi:role="line"
             id="tspan4857-8-3-61"
             x="836.65472"
             y="-1400.4196"
             style="font-style:normal;font-variant:normal;font-weight:normal;font-stretch:normal;font-size:74.26226044px;line-height:1.25;font-family:'Courier New';-inkscape-font-specification:'Courier New';fill:#ffffff;stroke-width:1.16034782">80</tspan></text>
<path
           style="stroke-width:1.29849768"
           d="m 1194.4006,1399.3466 v 37.6564 h 3.2462 3.2462 v -37.6564 -37.6565 h -3.2462 -3.2462 z"
           id="path4989"
           inkscape:connector-curvature="0" /><path
           style="stroke-width:0.11477206"
           d="m 1194.2385,1399.7635 v 38.3912 h 3.271 3.271 v -0.5738 -0.5739 h -3.2135 -3.2136 v -37.7026 -37.7026 h 3.2136 c 2.0659,0 3.2135,-0.041 3.2135,-0.1148 0,-0.073 -1.1668,-0.1148 -3.271,-0.1148 h -3.271 z"
           id="path4991"
           inkscape:connector-curvature="0" /><path
           style="stroke-width:0.11477206"
           d="m 1193.3204,1360.454 c -0.2287,0.2287 -0.2296,0.3827 -0.2296,39.3095 0,38.9268 9e-4,39.0807 0.2296,39.3094 0.2206,0.2206 0.3825,0.2296 4.1636,0.2296 3.375,0 3.9704,-0.025 4.1891,-0.1787 l 0.2551,-0.1787 v -39.18 c 0,-35.4651 -0.018,-39.197 -0.1803,-39.3602 -0.1571,-0.1571 -0.6978,-0.1804 -4.1892,-0.1804 -3.8558,0 -4.0175,0.01 -4.2383,0.2295 z m 7.5749,1.033 c 0,0.2241 -0.076,0.2295 -3.2135,0.2295 h -3.2133 l -0.029,37.674 -0.029,37.6739 -0.029,-37.7313 -0.027,-37.7313 h 1.9579 c 1.276,0 1.9331,-0.04 1.8869,-0.1148 -0.043,-0.07 -0.8429,-0.1148 -2.0153,-0.1148 h -1.9444 v 38.3913 38.3912 h 3.2654 3.2652 l 0.042,-0.6599 0.042,-0.66 0.023,0.7174 0.023,0.7173 h -3.3858 -3.3858 v -38.506 -38.506 h 3.3858 c 3.3093,0 3.3858,0 3.3858,0.2295 z"
           id="path4993"
           inkscape:connector-curvature="0" /><path
           style="stroke-width:0.11477206"
           d="m 1193.3204,1360.454 c -0.2287,0.2287 -0.2296,0.3827 -0.2296,39.3095 v 39.0799 l 0.2336,0.2337 c 0.2277,0.2276 0.3401,0.2329 4.3084,0.2009 3.4723,-0.028 4.0905,-0.059 4.1832,-0.2051 0.068,-0.1075 0.1091,-14.8734 0.1103,-39.3299 0,-35.4465 -0.015,-39.1749 -0.1786,-39.3381 -0.1571,-0.1571 -0.6979,-0.1804 -4.1893,-0.1804 -3.8557,0 -4.0175,0.01 -4.2383,0.2295 z m 7.553,1.0617 c 0.036,0.1874 -0.1764,0.2008 -3.1832,0.2008 h -3.2217 l -0.029,34.1735 -0.029,34.1733 -0.029,-34.2307 -0.027,-34.2308 h 1.9579 c 1.276,0 1.9331,-0.04 1.8869,-0.1148 -0.043,-0.07 -0.8429,-0.1148 -2.0153,-0.1148 h -1.9444 v 38.3913 38.3912 h 3.2651 3.265 l 0.042,-0.6025 0.042,-0.6026 0.021,0.6599 0.02,0.66 h -3.3857 -3.3858 v -38.5078 -38.5077 l 3.3555,0.03 c 3.0906,0.028 3.3587,0.046 3.3942,0.2313 z"
           id="path4995"
           inkscape:connector-curvature="0" /><path
           style="stroke-width:0.11477206"
           d="m 1193.3204,1360.454 c -0.2287,0.2287 -0.2296,0.3827 -0.2296,39.3095 v 39.0799 l 0.2336,0.2337 c 0.2277,0.2276 0.3401,0.2329 4.3084,0.2009 3.4723,-0.028 4.0905,-0.059 4.1832,-0.2051 0.068,-0.1075 0.1091,-14.8734 0.1103,-39.3299 0,-35.4465 -0.015,-39.1749 -0.1786,-39.3381 -0.1571,-0.1571 -0.6979,-0.1804 -4.1893,-0.1804 -3.8557,0 -4.0175,0.01 -4.2383,0.2295 z m 7.5197,0.9393 c 0.2717,0.2723 -0.2355,0.3232 -3.2223,0.3232 h -3.1492 l -0.029,24.9917 -0.029,24.9916 -0.029,-25.049 -0.027,-25.049 h 1.9579 c 1.276,0 1.9331,-0.04 1.8869,-0.1148 -0.043,-0.07 -0.8429,-0.1148 -2.0153,-0.1148 h -1.9444 v 38.3913 38.3912 h 3.2648 3.2648 l 0.043,-0.5452 0.043,-0.5451 0.02,0.6025 0.021,0.6026 h -3.3857 -3.3858 v -38.5125 -38.5125 l 3.319,0.035 c 1.8255,0.02 3.3543,0.071 3.3973,0.1136 z"
           id="path4997"
           inkscape:connector-curvature="0" /><path
           style="stroke-width:0.11477206"
           d="m 1193.3204,1360.454 c -0.2287,0.2287 -0.2296,0.3827 -0.2296,39.3095 v 39.0799 l 0.2336,0.2337 c 0.2277,0.2276 0.3401,0.2329 4.3084,0.2009 3.4723,-0.028 4.0905,-0.059 4.1832,-0.2051 0.068,-0.1075 0.1091,-14.8734 0.1103,-39.3299 0,-35.4465 -0.015,-39.1749 -0.1786,-39.3381 -0.1571,-0.1571 -0.6979,-0.1804 -4.1893,-0.1804 -3.8557,0 -4.0175,0.01 -4.2383,0.2295 z m 7.5334,0.9532 c 0.2396,0.2397 -0.4745,0.3059 -3.3151,0.3076 h -3.0698 l -0.029,16.9002 -0.029,16.9002 -0.027,-16.9576 -0.028,-16.9576 h 1.9511 c 1.2242,0 1.9512,-0.043 1.9512,-0.1148 0,-0.072 -0.7462,-0.1147 -2.0086,-0.1147 h -2.0086 v 38.3906 38.3913 h 3.2642 3.2641 l 0.045,-0.4304 0.045,-0.4304 0.02,0.4878 0.02,0.4877 h -3.3859 -3.3857 v -38.5176 -38.5176 l 3.3189,0.04 c 1.8254,0.023 3.3604,0.081 3.4111,0.1326 z"
           id="path4999"
           inkscape:connector-curvature="0" /><path
           style="stroke-width:0.11477206"
           d="m 1193.3204,1360.454 c -0.2287,0.2287 -0.2296,0.3827 -0.2296,39.3642 v 39.1346 l 0.2734,0.1792 c 0.3999,0.262 8.2838,0.207 8.4518,-0.059 0.068,-0.1076 0.1091,-14.874 0.1103,-39.3299 0,-35.4465 -0.015,-39.1749 -0.1786,-39.3381 -0.1571,-0.1571 -0.6979,-0.1804 -4.1893,-0.1804 -3.8557,0 -4.0175,0.01 -4.2383,0.2295 z m 7.5362,0.956 c 0.2051,0.2051 -0.3289,0.2517 -3.2411,0.283 l -3.1463,0.034 -0.03,11.099 -0.03,11.099 -0.027,-11.1615 -0.028,-11.1616 h 1.9512 c 1.2242,0 1.9511,-0.043 1.9511,-0.1148 0,-0.072 -0.7461,-0.1148 -2.0085,-0.1148 h -2.0087 v 38.3913 38.3912 h 3.2635 3.2634 l 0.048,-0.3156 c 0.044,-0.2937 0.049,-0.2898 0.065,0.058 l 0.018,0.373 h -3.3858 -3.3857 v -38.5215 -38.5214 l 3.3279,0.053 c 1.8303,0.029 3.3626,0.088 3.4049,0.1301 z"
           id="path5001"
           inkscape:connector-curvature="0" /><path
           style="stroke-width:0.11477206"
           d="m 1193.3204,1360.454 c -0.2287,0.2287 -0.2296,0.3827 -0.2296,39.3642 v 39.1346 l 0.2734,0.1792 c 0.3999,0.262 8.2838,0.207 8.4518,-0.059 0.068,-0.1076 0.1091,-14.874 0.1103,-39.3299 0,-35.4465 -0.015,-39.1749 -0.1786,-39.3381 -0.1571,-0.1571 -0.6979,-0.1804 -4.1893,-0.1804 -3.8557,0 -4.0175,0.01 -4.2383,0.2295 z m 7.551,0.9707 c 0.1884,0.1885 -0.4018,0.238 -3.2556,0.2728 l -3.1461,0.038 -0.03,7.2498 -0.03,7.2497 -0.027,-7.3167 -0.027,-7.3167 h 1.9511 c 1.2241,0 1.9512,-0.043 1.9512,-0.1148 0,-0.073 -0.7462,-0.1147 -2.0087,-0.1147 h -2.0085 v 38.3912 38.3912 h 3.2631 3.263 l 0.05,-0.2582 c 0.043,-0.2214 0.052,-0.2132 0.065,0.058 l 0.015,0.3156 h -3.3857 -3.3858 v -38.5243 -38.5244 l 3.3427,0.071 c 1.8384,0.039 3.3707,0.099 3.4049,0.133 z"
           id="path5003"
           inkscape:connector-curvature="0" /><path
           style="stroke-width:0.11477206"
           d="m 1193.3204,1360.454 c -0.2287,0.2287 -0.2296,0.3827 -0.2296,39.3642 v 39.1346 l 0.2734,0.1792 c 0.3999,0.262 8.2838,0.207 8.4518,-0.059 0.068,-0.1076 0.1091,-14.874 0.1103,-39.3299 0,-35.4465 -0.015,-39.1749 -0.1786,-39.3381 -0.1571,-0.1571 -0.6979,-0.1804 -4.1893,-0.1804 -3.8557,0 -4.0175,0.01 -4.2383,0.2295 z m 7.4928,1.0198 c 0.1515,0.1515 -1.2948,0.2411 -3.905,0.242 l -2.4377,7e-4 -0.031,4.7917 -0.031,4.7918 -0.028,-4.8491 -0.027,-4.8491 h 1.9512 c 1.2241,0 1.951,-0.043 1.951,-0.1148 0,-0.072 -0.746,-0.1148 -2.0085,-0.1148 h -2.0086 v 38.3913 38.3912 h 3.2627 c 3.0106,0 3.2666,-0.016 3.315,-0.2008 0.039,-0.1511 0.056,-0.1369 0.066,0.058 l 0.013,0.2583 h -3.3858 -3.3857 v -38.5242 -38.5244 l 3.2979,0.079 c 1.8138,0.044 3.3401,0.1218 3.3916,0.1733 z"
           id="path5005"
           inkscape:connector-curvature="0" /><path
           style="stroke-width:0.11477206"
           d="m 1193.3204,1360.454 c -0.2287,0.2287 -0.2296,0.3827 -0.2296,39.3642 v 39.1346 l 0.2734,0.1792 c 0.3999,0.262 8.2838,0.207 8.4518,-0.059 0.068,-0.1076 0.1091,-14.874 0.1103,-39.3299 0,-35.4465 -0.015,-39.1749 -0.1786,-39.3381 -0.1571,-0.1571 -0.6979,-0.1804 -4.1893,-0.1804 -3.8557,0 -4.0175,0.01 -4.2383,0.2295 z m 2.7258,0.8893 -1.8077,0.034 v 38.3883 38.3884 h 3.2615 c 2.5017,0 3.2749,-0.033 3.3193,-0.1434 0.034,-0.086 0.062,-0.063 0.068,0.058 0.012,0.187 -0.2253,0.2009 -3.3767,0.2009 h -3.3859 v -38.506 -38.506 l 1.8652,0.025 1.8651,0.025 z m 4.7343,0.1269 c 0,0.1522 -1.5402,0.2463 -4.0324,0.2463 h -2.2763 l -0.032,3.1276 -0.032,3.1275 -0.027,-3.1849 -0.026,-3.1849 h 1.9511 c 1.2241,0 1.9511,-0.043 1.9511,-0.1148 0,-0.07 0.4974,-0.1148 1.2625,-0.1148 0.6943,0 1.2624,0.044 1.2624,0.098 z"
           id="path5007"
           inkscape:connector-curvature="0" /><path
           style="stroke-width:0.11477206"
           d="m 1193.3204,1360.454 c -0.2287,0.2287 -0.2296,0.3827 -0.2296,39.3642 v 39.1346 l 0.2734,0.1792 c 0.3999,0.262 8.2838,0.207 8.4518,-0.059 0.068,-0.1076 0.1091,-14.874 0.1103,-39.3299 0,-35.4465 -0.015,-39.1749 -0.1786,-39.3381 -0.1571,-0.1571 -0.6979,-0.1804 -4.1893,-0.1804 -3.8557,0 -4.0175,0.01 -4.2383,0.2295 z m 2.2093,0.8891 -1.2912,0.036 v 38.3875 38.3875 h 3.2615 c 2.1129,0 3.2819,-0.041 3.3198,-0.1176 0.032,-0.065 0.045,-0.052 0.029,0.028 -0.024,0.1137 -0.7755,0.1532 -3.3772,0.1768 l -3.3477,0.03 v -38.5077 -38.5078 l 1.3486,0.024 1.3487,0.024 z m 5.183,0.1272 c 0.09,0.1455 -1.5411,0.2448 -4.0326,0.2456 l -2.2067,6e-4 -0.033,2.0373 -0.033,2.0371 -0.025,-2.0945 -0.025,-2.0946 h 1.9224 c 1.0574,-9e-4 2,-0.052 2.0947,-0.113 0.2124,-0.1373 2.2589,-0.152 2.3424,-0.017 z"
           id="path5009"
           inkscape:connector-curvature="0" /><path
           style="stroke-width:0.11477206"
           d="m 1193.3204,1360.454 c -0.2287,0.2287 -0.2296,0.3827 -0.2296,39.3642 v 39.1346 l 0.2734,0.1792 c 0.3999,0.262 8.2838,0.207 8.4518,-0.059 0.068,-0.1076 0.1091,-14.874 0.1103,-39.3299 0,-35.4465 -0.015,-39.1749 -0.1786,-39.3381 -0.1571,-0.1571 -0.6979,-0.1804 -4.1893,-0.1804 -3.8557,0 -4.0175,0.01 -4.2383,0.2295 z m 1.865,0.8888 -0.9469,0.039 v 38.3847 38.3848 l 3.0701,0.032 3.0702,0.032 -3.1275,0.026 -3.1276,0.026 v -38.5061 -38.506 l 1.0043,0.024 1.0043,0.024 z m 5.4803,0.1271 c 0,0.1405 -1.7839,0.2466 -4.1457,0.2466 h -2.0447 l -0.036,1.3486 -0.036,1.3486 -0.024,-1.4059 -0.024,-1.406 1.9797,-0.012 c 1.0889,-0.01 2.1089,-0.053 2.2668,-0.1034 0.39,-0.1249 2.0658,-0.1389 2.0658,-0.018 z"
           id="path5011"
           inkscape:connector-curvature="0" /><path
           style="stroke-width:0.11477206"
           d="m 1193.3204,1360.454 c -0.2287,0.2287 -0.2296,0.3827 -0.2296,39.3642 v 39.1346 l 0.2734,0.1792 c 0.3999,0.262 8.2838,0.207 8.4518,-0.059 0.068,-0.1076 0.1091,-14.874 0.1103,-39.3299 0,-35.4465 -0.015,-39.1749 -0.1786,-39.3381 -0.1571,-0.1571 -0.6979,-0.1804 -4.1893,-0.1804 -3.8557,0 -4.0175,0.01 -4.2383,0.2295 z m 1.6355,0.8885 -0.7174,0.041 v 38.3835 38.3834 l 2.439,0.033 2.4389,0.033 -2.4963,0.026 -2.4964,0.026 v -38.506 -38.5062 l 0.7748,0.023 0.7746,0.022 z m 5.5951,0.1271 c 0,0.1297 -2.0211,0.2469 -4.2596,0.2469 h -1.8136 l -0.039,0.8895 -0.039,0.8895 -0.024,-0.9468 -0.024,-0.9469 1.9224,-0.01 c 1.0574,0 2.129,-0.049 2.3816,-0.1016 0.6213,-0.1285 1.8937,-0.1446 1.8937,-0.024 z"
           id="path5013"
           inkscape:connector-curvature="0" /><path
           style="stroke-width:0.11477206"
           d="m 1193.3204,1360.454 c -0.2287,0.2287 -0.2296,0.3827 -0.2296,39.3642 v 39.1346 l 0.2734,0.1792 c 0.3999,0.262 8.2838,0.207 8.4518,-0.059 0.068,-0.1076 0.1091,-14.874 0.1103,-39.3299 0,-35.4465 -0.015,-39.1749 -0.1786,-39.3381 -0.1571,-0.1571 -0.6979,-0.1804 -4.1893,-0.1804 -3.8557,0 -4.0175,0.01 -4.2383,0.2295 z m 1.4059,0.8875 -0.4878,0.044 v 38.3816 38.3816 l 1.6929,0.035 1.6928,0.035 -1.7502,0.025 -1.7503,0.025 v -38.506 -38.5061 l 0.5453,0.02 0.5451,0.021 z m 5.71,0.1281 c 0,0.1286 -2.0146,0.2469 -4.2011,0.2469 h -1.7551 l -0.042,0.6026 -0.042,0.6026 -0.021,-0.66 -0.02,-0.6599 1.9797,-0.01 c 1.0889,0 2.1865,-0.049 2.4389,-0.1016 0.6231,-0.1288 1.6643,-0.1438 1.6643,-0.024 z"
           id="path5015"
           inkscape:connector-curvature="0" /><path
           style="stroke-width:0.11477206"
           d="m 1193.3204,1360.454 c -0.2287,0.2287 -0.2296,0.3827 -0.2296,39.3642 v 39.1346 l 0.2734,0.1792 c 0.3999,0.262 8.2838,0.207 8.4518,-0.059 0.068,-0.1076 0.1091,-14.874 0.1103,-39.3299 0,-35.4465 -0.015,-39.1749 -0.1786,-39.3381 -0.1571,-0.1571 -0.6979,-0.1804 -4.1893,-0.1804 -3.8557,0 -4.0175,0.01 -4.2383,0.2295 z m 1.2911,0.8865 -0.373,0.046 v 38.38 38.3799 l 1.1764,0.037 1.1764,0.037 -1.2337,0.024 -1.2339,0.024 v -38.506 -38.5061 l 0.4305,0.019 c 0.4237,0.019 0.4246,0.019 0.057,0.065 z m 5.71,0.129 c 0,0.1232 -2.0948,0.2459 -4.2111,0.2466 l -1.6284,4e-4 -0.045,0.4304 -0.045,0.4304 -0.02,-0.4877 -0.02,-0.4878 2.0371,-0.01 c 1.1206,0 2.2697,-0.05 2.5537,-0.1004 0.7192,-0.128 1.3774,-0.1392 1.3774,-0.024 z"
           id="path5017"
           inkscape:connector-curvature="0" /><path
           style="stroke-width:0.11477206"
           d="m 1193.3204,1360.454 c -0.2287,0.2287 -0.2296,0.3827 -0.2296,39.4103 v 39.1808 l 0.3213,0.1331 c 0.2281,0.094 1.4774,0.1234 4.3082,0.1 3.3944,-0.028 4.0031,-0.059 4.0957,-0.2053 0.068,-0.1075 0.1091,-14.8744 0.1103,-39.3299 0,-35.4464 -0.015,-39.1749 -0.1786,-39.3381 -0.1571,-0.1571 -0.6979,-0.1804 -4.1893,-0.1804 -3.8557,0 -4.0175,0.01 -4.2383,0.2295 z m 1.1764,0.8844 -0.2583,0.05 v 38.3781 38.378 l 0.7747,0.04 0.7749,0.04 -0.8322,0.023 -0.8322,0.023 v -38.506 -38.5061 l 0.3157,0.016 c 0.2707,0.014 0.2788,0.023 0.058,0.066 z m 5.7099,0.1486 c 0,0.067 -0.3239,0.1079 -0.7748,0.098 -0.6879,-0.015 -0.7233,-0.025 -0.3155,-0.098 0.7053,-0.1263 1.0903,-0.1263 1.0903,0 z m -3.7514,0.2007 -1.9724,0.034 -0.048,0.313 c -0.044,0.288 -0.049,0.2832 -0.065,-0.06 l -0.018,-0.373 2.0371,0.025 2.0373,0.025 z"
           id="path5019"
           inkscape:connector-curvature="0" /><path
           style="stroke-width:0.7912941"
           d=""
           id="path5021"
           inkscape:connector-curvature="0"
           transform="matrix(0.75000002,0,0,-0.75000002,-7.9062859,1586.6355)" /><path
           style="stroke-width:0.7912941"
           d=""
           id="path5023"
           inkscape:connector-curvature="0"
           transform="matrix(0.75000002,0,0,-0.75000002,-7.9062859,1586.6355)" /><path
           style="stroke-width:0.7912941"
           d=""
           id="path5025"
           inkscape:connector-curvature="0"
           transform="matrix(0.75000002,0,0,-0.75000002,-7.9062859,1586.6355)" /><path
           style="stroke-width:0.16231221"
           d="m 1533.1983,1252.2585 c -1.3583,1.0463 -2.4447,1.9764 -2.414,2.0668 0.065,0.1917 44.3382,61.2426 44.6541,61.5761 0.1787,0.1886 0.5943,-0.04 2.6201,-1.4394 1.3241,-0.915 2.507,-1.7571 2.6288,-1.8713 0.1838,-0.1728 -3.5756,-5.4316 -22.2934,-31.1854 -12.383,-17.0377 -22.5622,-30.9938 -22.6204,-31.0135 -0.058,-0.02 -1.217,0.8203 -2.5752,1.8667 z"
           id="path5027"
           inkscape:connector-curvature="0" /><path
           style="stroke-width:0.05738603"
           d="m 1535.1523,1250.84 c -1.3763,0.9865 -3.3562,2.5406 -4.0233,3.1578 l -0.329,0.3045 0.7894,1.1015 c 4.6871,6.5404 42.5773,58.7779 43.662,60.1948 0.1388,0.1814 0.2905,0.3299 0.337,0.3299 0.2481,0 1.3109,-0.6785 3.6102,-2.3047 1.6589,-1.1733 1.4956,-1.0239 1.3759,-1.2582 -0.2452,-0.4807 -2.1907,-3.2798 -4.9824,-7.1682 -5.1656,-7.1952 -25.7776,-35.5705 -35.9539,-49.4955 -3.5068,-4.7986 -3.8425,-5.2508 -3.8976,-5.2508 -0.026,0 -0.2899,0.175 -0.5883,0.3889 z"
           id="path5029"
           inkscape:connector-curvature="0" /><path
           style="stroke-width:0.05738603"
           d="m 1535.2352,1250.7754 c -1.3512,0.9668 -3.372,2.5493 -4.0521,3.1732 l -0.385,0.3534 0.2119,0.2982 c 2.9074,4.0919 42.5345,58.7352 44.0692,60.7688 0.2323,0.3077 0.4608,0.5595 0.5079,0.5595 0.2497,0 1.2555,-0.6412 3.5983,-2.2935 1.6544,-1.1669 1.5088,-1.0356 1.394,-1.2575 -0.5871,-1.1356 -6.3784,-9.1919 -26.1998,-36.4471 -13.9288,-19.1525 -18.5578,-25.4793 -18.6415,-25.4793 -0.027,0 -0.2536,0.1459 -0.5029,0.3243 z"
           id="path5031"
           inkscape:connector-curvature="0" /><path
           style="stroke-width:0.05738603"
           d="m 1535.3448,1249.1434 c -2.9258,2.2399 -5.7674,4.4558 -5.9199,4.6164 -0.1522,0.1604 -0.1876,0.2401 -0.1704,0.3836 0.032,0.2705 45.7745,63.293 46.0088,63.3901 0.095,0.039 0.226,0.051 0.3013,0.027 0.1657,-0.053 6.4443,-4.4118 6.6611,-4.6248 0.2206,-0.2165 0.205,-0.4221 -0.061,-0.7998 -0.12,-0.171 -4.2729,-5.8887 -9.2286,-12.7062 -4.9556,-6.8175 -15.2019,-20.9172 -22.7696,-31.3328 -7.5677,-10.4156 -13.8352,-19.0084 -13.9276,-19.0952 -0.2537,-0.2381 -0.4364,-0.2093 -0.8945,0.1413 z m 23.107,32.1527 c 12.4352,17.1067 22.6091,31.129 22.6084,31.1606 0,0.065 -5.3338,3.7799 -5.4559,3.8011 -0.046,0.01 -9.3863,-12.815 -22.5449,-30.951 -12.3567,-17.0307 -22.4841,-30.9952 -22.5053,-31.0323 -0.039,-0.069 5.1541,-4.1271 5.243,-4.0969 0.024,0.01 10.2194,14.0116 22.6547,31.1185 z"
           id="path5033"
           inkscape:connector-curvature="0" /><path
           style="stroke-width:0.05738603"
           d="m 1535.2304,1249.2293 c -2.2469,1.7106 -5.6491,4.3655 -5.8055,4.5303 -0.1522,0.1605 -0.1876,0.2403 -0.1706,0.3838 0.017,0.131 1.5333,2.2644 5.4764,7.6988 3,4.1346 8.7986,12.1271 12.8857,17.761 4.0872,5.6339 10.4777,14.4397 14.2013,19.5685 3.7234,5.1289 8.2343,11.3428 10.0239,13.8088 3.3781,4.6546 3.4009,4.6826 3.7232,4.5803 0.073,-0.024 1.1018,-0.7151 2.2853,-1.5373 1.1835,-0.8223 2.6296,-1.827 3.2136,-2.2328 0.5839,-0.4057 1.1197,-0.8024 1.1907,-0.8813 0.1655,-0.1839 0.1641,-0.4142 0,-0.6599 -0.073,-0.107 -2.376,-3.2805 -5.1177,-7.0521 -12.1622,-16.7318 -30.6212,-42.1298 -35.4513,-48.7782 -2.9008,-3.9927 -5.3497,-7.3303 -5.4422,-7.4172 -0.267,-0.2503 -0.4299,-0.2136 -1.0091,0.2273 z m 8.6465,12.0252 c 12.7491,17.5366 30.495,41.954 33.9985,46.7805 l 3.2054,4.4158 -0.1884,0.1464 c -0.2806,0.2181 -5.2468,3.6727 -5.2819,3.6742 -0.017,8e-4 -0.1703,-0.1858 -0.3419,-0.4146 -0.6675,-0.8913 -9.7404,-13.3769 -23.279,-32.0358 -2.3359,-3.2193 -8.1123,-11.1802 -12.8364,-17.691 -4.7241,-6.5106 -8.5893,-11.8594 -8.5893,-11.886 0,-0.066 5.1376,-4.0784 5.2221,-4.0787 0.017,0 3.6567,4.9901 8.0909,11.0892 z"
           id="path5035"
           inkscape:connector-curvature="0" /><path
           style="stroke-width:0.04945588"
           d=""
           id="path5037"
           inkscape:connector-curvature="0"
           transform="matrix(0.75000002,0,0,-0.75000002,-7.9062859,1586.6355)" /><path
           style="stroke-width:0.01014452"
           d="m 1554.6573,1276.2565 c 0.02,0.029 1.1184,1.5392 2.4387,3.3553 2.6269,3.6134 4.4104,6.068 6.4459,8.8713 l 1.326,1.8261 h 0.046 c 0.037,0 0.044,5e-4 0.037,-0.012 0,-0.01 -2.3115,-3.183 -5.1264,-7.0559 l -5.1178,-7.0414 -0.044,-3e-4 -0.044,-3e-4 0.038,0.053 z"
           id="path5039"
           inkscape:connector-curvature="0" /><path
           style="stroke-width:0.04057805"
           d="m 1533.7201,1251.8872 c -1.4417,1.0918 -2.9019,2.3099 -2.9009,2.4199 6e-4,0.062 1.4514,2.0773 9.5305,13.2372 7.8893,10.8977 24.6282,33.9755 28.4244,39.1883 l 0.7608,1.0448 h 3.9568 3.9568 l -0.093,-0.1318 c -0.3499,-0.4989 -3.8468,-5.3623 -5.5069,-7.6592 -8.0549,-11.1436 -31.0532,-42.7588 -35.0013,-48.1153 l -0.3963,-0.5378 -1.0005,5e-4 -1.0004,4e-4 -0.7305,0.5531 z"
           id="path5041"
           inkscape:connector-curvature="0" /><path
           style="stroke-width:0.04057805"
           d="m 1533.7154,1251.8868 c -1.4403,1.0984 -2.8293,2.2511 -2.8839,2.3935 -0.024,0.065 0.2434,0.4417 4.4514,6.2643 8.7783,12.1469 34.0689,47.0195 34.2032,47.162 0.063,0.067 0.2953,0.071 4.009,0.061 l 3.9419,-0.011 -0.2893,-0.4058 c -0.975,-1.3677 -3.7524,-5.229 -5.4723,-7.6084 -8.0737,-11.1688 -30.5064,-42.0064 -34.6175,-47.5879 l -0.6054,-0.8217 h -1.0056 -1.0056 z"
           id="path5043"
           inkscape:connector-curvature="0" /><path
           style="stroke-width:0.04057805"
           d="m 1536.6903,1251.3858 c 0.018,0.029 4.9455,6.808 10.9501,15.0646 6.0047,8.2567 13.2723,18.2522 16.1501,22.2121 2.8779,3.96 7.1776,9.8762 9.5551,13.1473 l 4.3226,5.9473 0.6584,0.012 c 0.3621,0.01 0.6583,5e-4 0.6583,-0.013 0,-0.022 -7.9327,-10.9411 -30.6568,-42.2 -4.5105,-6.2043 -8.6825,-11.9426 -9.2713,-12.7516 l -1.0706,-1.4709 h -0.6641 c -0.5328,0 -0.6577,0.011 -0.6318,0.052 z"
           id="path5045"
           inkscape:connector-curvature="0" /><path
           style="stroke-width:0.04057805"
           d="m 1569.3919,1307.9613 c -1.5676,-2.0953 -3.085,-4.2309 -4.6303,-6.344 -10.8288,-14.9272 -21.6603,-29.8525 -32.4592,-44.8014 -0.5559,-0.7997 -1.1674,-1.5644 -1.6758,-2.3949 -0.1236,-0.3185 0.2615,-0.504 0.4387,-0.6999 1.0546,-0.9047 2.1513,-1.7687 3.2703,-2.5864 0.4304,-0.079 0.8853,0 1.3252,-0.022 0.3229,0.042 0.6945,-0.077 0.9835,0.088 6.0134,8.1887 11.9796,16.4132 17.9603,24.6263 7.5244,10.3609 15.0739,20.7041 22.5355,31.1104 0.1543,0.2625 0.413,0.4866 0.5008,0.7758 0.012,0.3259 -0.4012,0.2646 -0.6186,0.2796 -2.4962,0.031 -4.9926,0.011 -7.4889,0.017 -0.048,-0.016 -0.094,-0.032 -0.1415,-0.048 z"
           id="path5047"
           inkscape:connector-curvature="0" /><path
           style="stroke-width:0.11477206"
           d="m 1575.3434,1317.8224 c -0.8377,-0.5498 -1.2878,-1.5571 -1.9289,-2.3124 -14.3679,-19.7805 -28.7529,-39.5492 -43.0641,-59.3707 -0.3901,-0.6964 -1.1067,-1.2739 -1.2734,-2.0634 0.037,-0.6101 0.82,-0.826 1.1719,-1.2488 1.7799,-1.3764 3.495,-2.856 5.379,-4.0865 0.6058,-0.3707 0.9618,0.5059 1.318,0.8419 13.0719,17.8691 26.0613,35.8001 39.0874,53.7033 2.1797,3.07 4.5115,6.0431 6.523,9.2264 0.05,0.6475 -0.7957,0.9135 -1.1801,1.3074 -1.9362,1.3362 -3.8135,2.7795 -5.8382,3.9757 -0.063,0.022 -0.1286,0.035 -0.1946,0.027 z"
           id="path5049"
           inkscape:connector-curvature="0" /><path
           style="stroke-width:0.45908824"
           d="m 1776.445,981.7431 c -12.1144,-4.08523 -24.4411,-7.79568 -36.3846,-12.23757 -0.056,-1.95125 0.8716,-4.15751 2.0731,-5.67316 24.1458,7.44745 48.2342,15.36447 72.302,23.16152 0.1891,2.05055 -1.394,4.27747 -1.8077,6.34927 -7.9147,-2.02851 -15.9077,-5.12564 -23.8527,-7.56506 -4.11,-1.34497 -8.22,-2.69003 -12.3301,-4.035 z"
           id="path5051"
           inkscape:connector-curvature="0" /><path
           style="stroke-width:0.45908824"
           d="m 1812.7416,994.72045 c -24.7088,-7.9704 -49.3838,-16.05488 -74.0153,-24.26001 -0.1033,-2.3935 1.2633,-4.99089 2.1717,-7.27549 0.7144,-1.80386 2.8846,0.36195 4.1111,0.26549 23.5893,7.55625 47.2558,14.98245 70.6934,22.9454 -0.085,2.81263 -1.3253,5.70802 -2.6227,8.20798 -0.086,0.0901 -0.213,0.15032 -0.3382,0.11663 z m -0.2295,-1.38444 c 0.5497,-0.94453 0.9995,-2.5872 1.2312,-3.32393 -0.5496,1.33341 -0.9443,4.22852 -3.0397,2.82449 -3.4187,-1.05049 -1.1811,-0.30809 0.8831,0.28125 0.3049,0.0862 0.6123,0.16913 0.9254,0.21819 z m 1.7476,-5.28222 c 0.9542,-1.41754 -1.88,-1.53221 -1.9744,-1.7835 0.836,0.36753 2.2942,0.88793 1.9063,2.0767 z m -44.6445,-8.58197 c -9.584,-3.36417 -19.4495,-6.02825 -28.8069,-9.98598 -0.8942,0.0215 -0.6027,-1.71827 -0.6348,-1.42125 -0.5463,1.12932 -0.1765,2.10284 1.2582,2.11303 10.3472,3.50774 20.7428,6.87309 31.1272,10.26978 -0.9812,-0.32513 -1.9625,-0.65035 -2.9437,-0.97558 z m -7.9211,-9.50093 c -6.553,-1.98925 -13.1955,-4.52337 -19.7408,-6.05871 -0.6101,0.55369 -1.2276,2.85543 -0.4546,0.92083 1.2465,-2.18882 4.0043,0.60824 5.7509,0.57495 4.9221,1.5562 9.8433,3.11582 14.7664,4.66869 z"
           id="path5053"
           inkscape:connector-curvature="0" /><path
           style="stroke-width:0.45908824"
           d="m 1812.5212,994.67198 c -23.7602,-7.61003 -47.5055,-15.30768 -71.1524,-23.26466 -1.3479,-0.52079 -3.895,-1.12972 -2.5134,-3.10065 0.8417,-1.91227 1.0947,-4.65538 2.8837,-5.87215 24.4733,7.57241 48.8598,15.45643 73.1564,23.58204 2.0718,0.49885 0.1194,3.16126 0.042,4.43934 -0.685,1.23147 -0.7818,3.84962 -2.4161,4.21608 z m -0.1893,-1.54319 c 0.8755,-0.719 0.1758,-0.47408 0,0 z m 1.8005,-5.86765 c -0.6687,-0.8844 -0.4524,-0.20535 0,0 z m -68.7718,-15.81524 c -1.7351,-0.62919 2.0862,0.77708 0,0 z"
           id="path5055"
           inkscape:connector-curvature="0" /><path
           style="stroke-width:0.32462442"
           d="m 1742.0644,616.6269 c -1.3828,-1.57157 -1.6111,-3.95306 -2.4722,-5.83561 1.9624,-1.24239 4.6895,-1.60129 6.9357,-2.51564 21.9919,-7.18395 43.9795,-14.38123 65.9641,-21.58711 1.0903,1.72903 1.6331,4.08512 2.1444,6.16528 -0.2508,1.05057 -2.1138,0.75642 -2.8667,1.34669 -23.2074,7.55294 -46.4075,15.18931 -69.7053,22.42639 z"
           id="path5057"
           inkscape:connector-curvature="0" /><path
           style="stroke-width:0.32462442"
           d="m 1741.6054,618.01097 c -1.4678,-1.27232 -1.7566,-3.56621 -2.5057,-5.31636 -0.1923,-1.03133 -1.4035,-3.11565 0.4907,-3.2209 24.488,-8.11954 49.0091,-16.24186 73.5611,-24.10901 1.3721,2.5545 1.9568,5.54808 2.9957,8.27026 -2.138,1.48652 -5.171,1.8076 -7.645,2.84111 -22.2885,7.20669 -44.5574,14.5054 -66.8968,21.5349 z m -1.7582,-6.89641 c 0.2546,-0.59178 -0.076,-0.74309 -0.029,-0.0893 0.012,0.0313 0.031,0.14504 0.029,0.0893 z m 74.765,-18.15353 c 0.073,-0.30633 -0.2644,-0.91169 0,0 z"
           id="path5059"
           inkscape:connector-curvature="0" /><path
           style="stroke-width:0.32462442"
           d="m 1535.6553,329.95877 c -1.7517,-1.00555 -3.6827,-2.19851 -4.8681,-3.8245 14.6974,-20.77406 29.7521,-41.32719 44.613,-61.9975 1.963,0.71256 3.7018,2.45285 5.5782,3.56261 -0.8786,2.17983 -2.8969,4.0908 -4.1976,6.17398 -13.6382,18.6693 -27.0264,37.52855 -40.8864,56.03087 l -0.1865,0.0615 z"
           id="path5061"
           inkscape:connector-curvature="0" /><path
           style="stroke-width:0.32462442"
           d="m 1536.0813,331.38728 c -2.4497,-1.23078 -4.7215,-2.8562 -6.8672,-4.5619 0.6233,-1.88279 2.4082,-3.47096 3.43,-5.24327 14.1044,-19.60049 28.0666,-39.31549 42.6185,-58.58724 0.938,-0.56696 1.9408,1.0609 2.8392,1.35807 1.4481,1.07181 3.0264,2.01424 4.338,3.24815 -3.0124,4.82914 -6.7138,9.39163 -9.9982,14.1096 -12.051,16.55864 -23.9892,33.22065 -36.1877,49.65883 -0.055,0.0244 -0.1149,0.029 -0.1726,0.0174 z m -0.2929,-1.43419 c -0.1,-0.0232 0,0.0557 0,0 z m -4.96,-3.64257 c -0.7225,-0.26873 1.3193,1.15525 0,0 z m 49.9934,-58.25608 c 0.024,-0.3821 -0.4969,0.98514 0,0 z m -5.2668,-3.89168 c -0.012,-0.0186 -0.023,0.0174 0,0 z"
           id="path5063"
           inkscape:connector-curvature="0" /><path
           style="stroke-width:0.32462442"
           d="m 1535.9044,331.50332 c -2.4181,-1.24448 -4.769,-2.93151 -6.5971,-4.94611 2.0469,-3.68804 4.8825,-7.05433 7.2513,-10.59629 12.7606,-17.7184 25.3679,-35.55666 38.5404,-52.97244 0.8393,-0.91958 1.9388,0.87328 2.7904,1.11022 1.4629,1.2309 3.6155,2.08201 4.4668,3.84099 -10.8622,15.59937 -22.2418,30.86351 -33.4116,46.2539 -4.3218,5.75022 -8.4001,11.75966 -12.9343,17.30844 -0.035,0 -0.07,0 -0.1057,0 z"
           id="path5065"
           inkscape:connector-curvature="0" /><path
           style="stroke-width:0.32462442"
           d="m 1194.0851,219.05643 c 0,-25.53705 0,-51.07422 0,-76.61139 2.0406,-0.56254 4.5214,-0.0615 6.7246,-0.23196 0.5589,2.36654 0.065,5.16959 0.232,7.69834 0,23.04834 0,46.09668 0,69.14501 -2.0406,0.56254 -4.5214,0.0615 -6.7245,0.23207 l -0.2296,-0.22952 z"
           id="path5067"
           inkscape:connector-curvature="0" /><path
           style="stroke-width:0.32462442"
           d="m 1193.2735,220.19323 c -0.055,-26.24046 -0.1101,-52.48091 -0.1649,-78.72138 2.3666,-0.56067 5.1725,-0.0627 7.7011,-0.23265 2.3526,-0.35308 0.7301,3.10243 1.1995,4.45273 -0.052,24.83376 -0.1045,49.66753 -0.156,74.5013 -2.3132,0.55801 -5.0619,0.0627 -7.536,0.23148 -0.3407,-0.0812 -0.849,0.19819 -1.0437,-0.23148 z"
           id="path5069"
           inkscape:connector-curvature="0" /><path
           style="stroke-width:0.32462442"
           d="m 859.21595,329.90748 c -15.28642,-20.45914 -30.08407,-41.2854 -45.17982,-61.88796 1.29805,-1.51055 3.43831,-2.55404 5.19203,-3.69571 1.23019,0.42793 1.77625,2.27045 2.7434,3.2079 14.20978,19.49013 28.43817,38.97086 42.40538,58.63435 -0.76571,1.40228 -2.65526,2.14142 -3.90083,3.19571 -0.39691,0.16791 -0.79078,0.73962 -1.26016,0.54571 z"
           id="path5071"
           inkscape:connector-curvature="0" /><path
           style="stroke-width:0.32462442"
           d="m 859.08218,331.36129 c -1.47071,-0.90914 -2.17169,-2.88881 -3.36604,-4.16333 -14.35589,-19.73914 -28.81627,-39.42676 -42.96015,-59.30712 1.25908,-1.93199 3.65826,-2.9727 5.48954,-4.34609 0.7239,-0.54571 1.84,-1.36237 2.26218,0.0116 15.2586,20.91318 30.46815,41.86848 45.44423,62.98356 -1.83383,1.78103 -4.16495,3.44241 -6.47295,4.74943 -0.12682,0.0441 -0.26157,0.0766 -0.39681,0.072 z m -39.24784,-66.74333 c -0.23777,-0.57483 -1.13412,0.0986 -0.21045,-0.0545 0.0392,-0.0186 0.31269,0.15687 0.21045,0.0545 z"
           id="path5073"
           inkscape:connector-curvature="0" /><path
           style="stroke-width:0.32462442"
           d="m 653.22847,616.52096 c -16.16887,-4.70276 -32.09442,-10.22579 -48.16071,-15.27423 -8.13241,-2.68888 -16.40268,-5.14464 -24.4512,-7.9782 -0.16998,-2.1897 1.21779,-4.27542 1.67265,-6.38912 3.13351,0.38722 6.32516,1.96505 9.47609,2.81199 21.09837,6.94039 42.26638,13.75372 63.31706,20.78729 0.73624,0.99453 -0.42017,2.38312 -0.53643,3.46178 -0.4284,0.76003 -0.45242,2.21963 -1.31746,2.58049 z"
           id="path5075"
           inkscape:connector-curvature="0" /><path
           style="stroke-width:0.32462442"
           d="m 654.08121,618.05657 c -11.80028,-3.44159 -23.43137,-7.50327 -35.1669,-11.18088 -13.20406,-4.31104 -26.48494,-8.40394 -39.61334,-12.93637 -0.37422,-1.54547 0.75143,-3.26592 1.06937,-4.81301 0.6571,-1.08074 0.51484,-3.226 1.92455,-3.65323 23.37509,7.5918 46.77502,15.15298 70.07422,22.98684 1.33569,0.70143 3.33995,0.77638 4.27682,1.99533 -0.67904,2.52562 -1.20352,5.24779 -2.35226,7.56965 -0.0673,0.029 -0.14052,0.0348 -0.21246,0.0313 z m -0.37595,-1.87419 c -0.13437,0.89405 -2.34796,-0.37886 -0.86852,0.28394 0.54373,0.15768 0.76037,0.4805 0.86852,-0.28394 z m 1.43036,-5.55598 c -0.13866,-0.27048 -0.0685,0 0,0 z m -74.43667,-17.51894 c -0.2815,-0.64015 -0.30378,-0.051 0,0 z m 1.67194,-6.01756 c 0.95672,-0.0429 0.30889,-0.31538 0,0 z"
           id="path5077"
           inkscape:connector-curvature="0" /><path
           style="stroke-width:0.32462442"
           d="m 653.82001,618.01538 c -6.29094,-1.54547 -12.37035,-3.93996 -18.58622,-5.78596 -18.71525,-6.04112 -37.46438,-11.98825 -56.12498,-18.19182 -0.31271,-1.48351 0.77801,-3.15406 1.07089,-4.66309 0.63239,-1.25666 0.69121,-3.21625 1.87418,-4.04277 24.50783,7.87621 48.99268,15.84548 73.39874,24.0279 1.26861,0.2923 1.43953,1.63123 0.89719,2.65848 -0.66836,1.95948 -0.92283,4.24525 -2.07958,5.95549 -0.14342,0.0534 -0.29995,0.0498 -0.45022,0.0417 z"
           id="path5079"
           inkscape:connector-curvature="0" /><path
           style="stroke-width:0.32462442"
           d="m 582.37472,993.33386 c -0.64886,-2.07856 -1.76465,-4.25935 -1.91352,-6.33331 24.27436,-7.80979 48.51901,-15.74483 72.81926,-23.45355 1.23147,1.45141 1.41515,3.6896 1.88626,5.52117 0.20549,1.32881 -1.89717,1.0314 -2.65338,1.59802 -23.25778,7.71352 -46.52496,15.42146 -69.89065,22.7983 z"
           id="path5081"
           inkscape:connector-curvature="0" /><path
           style="stroke-width:0.32462442"
           d="m 582.07362,994.80487 c -1.47295,-2.30694 -2.12913,-5.17853 -2.96795,-7.79932 -0.28103,-1.31784 2.05406,-0.95903 2.74748,-1.5658 23.94575,-7.77434 47.85553,-15.67706 71.9092,-23.10629 1.25421,0.92269 1.38997,2.95081 2.05137,4.33446 0.15573,1.1115 1.21478,2.54019 0.59886,3.55925 -10.48966,4.08983 -21.32174,7.27 -31.98407,10.88605 -14.11458,4.5646 -28.19273,9.31712 -42.35489,13.69165 z m -1.45392,-7.19627 c 0.20445,-1.60027 -0.40647,0.57808 0,0 z m 74.37331,-18.1207 c 0.39718,-0.3357 0.1852,-0.69452 0,0 z m -1.40193,-5.67012 c -0.36922,-0.53744 0.0197,0.34392 0,0 z"
           id="path5083"
           inkscape:connector-curvature="0" /><path
           style="stroke-width:0.32462442"
           d="m 819.57189,1316.0023 c -1.91119,-0.8712 -3.94891,-2.0125 -5.29417,-3.6311 7.23709,-10.5649 14.98538,-20.8529 22.46554,-31.2768 7.47467,-10.28 14.94925,-20.56 22.42392,-30.84 1.74991,0.7333 3.36996,2.3597 4.82362,3.7275 0.68149,1.018 -1.20434,1.9377 -1.4378,2.8763 -14.1806,19.747 -28.342,39.5192 -42.75029,59.0972 -0.0676,0.046 -0.15179,0.055 -0.23082,0.047 z"
           id="path5085"
           inkscape:connector-curvature="0" /><path
           style="stroke-width:0.32462442"
           d="m 819.55789,1317.4586 c -2.49819,-1.0601 -4.71659,-2.8837 -6.7309,-4.6949 0.0411,-1.2908 1.58519,-2.3413 2.16767,-3.5302 14.55783,-20.161 29.0186,-40.4008 43.96452,-60.2738 1.46836,0.059 2.61266,1.7016 3.85999,2.4481 0.9463,0.9839 2.53579,1.6884 3.00664,2.9932 -15.13639,21.0178 -30.34006,42.0071 -45.70483,62.8548 -0.15345,0.137 -0.35597,0.2184 -0.56309,0.2028 z m -5.22562,-4.9454 c -0.22554,-0.9544 0.44695,0.5399 0,0 z m 49.76831,-58.0031 c 0.28762,-0.5656 -0.93562,-1.2241 -0.16805,-0.2429 0.1045,0.075 4e-4,0.6464 0.16805,0.2429 z m -4.96131,-3.8175 c 0.83044,-0.618 0.0118,-0.033 0,0 z"
           id="path5087"
           inkscape:connector-curvature="0" /><text
           xml:space="preserve"
           style="font-style:normal;font-weight:normal;font-size:46.41391754px;line-height:1.25;font-family:sans-serif;letter-spacing:0px;word-spacing:0px;fill:#000000;fill-opacity:1;stroke:none;stroke-width:1.16034782"
           x="1169.1693"
           y="-1327.7173"
           id="text5091"
           transform="scale(1,-1)"><tspan
             sodipodi:role="line"
             id="tspan5089"
             x="1169.1693"
             y="-1327.7173"
             style="font-style:normal;font-variant:normal;font-weight:normal;font-stretch:normal;font-family:'Courier New';-inkscape-font-specification:'Courier New';stroke-width:1.16034782">00</tspan></text>
<text
           xml:space="preserve"
           style="font-style:normal;font-weight:normal;font-size:46.41391754px;line-height:1.25;font-family:sans-serif;letter-spacing:0px;word-spacing:0px;fill:#000000;fill-opacity:1;stroke:none;stroke-width:1.16034782"
           x="1499.6854"
           y="-1215.9401"
           id="text5091-5"
           transform="scale(1,-1)"><tspan
             sodipodi:role="line"
             id="tspan5089-1"
             x="1499.6854"
             y="-1215.9401"
             style="font-style:normal;font-variant:normal;font-weight:normal;font-stretch:normal;font-family:'Courier New';-inkscape-font-specification:'Courier New';stroke-width:1.16034782">10</tspan></text>
<text
           xml:space="preserve"
           style="font-style:normal;font-weight:normal;font-size:46.41391754px;line-height:1.25;font-family:sans-serif;letter-spacing:0px;word-spacing:0px;fill:#000000;fill-opacity:1;stroke:none;stroke-width:1.16034782"
           x="1684.2389"
           y="-941.40515"
           id="text5091-9"
           transform="scale(1,-1)"><tspan
             sodipodi:role="line"
             id="tspan5089-4"
             x="1684.2389"
             y="-941.40515"
             style="font-style:normal;font-variant:normal;font-weight:normal;font-stretch:normal;font-family:'Courier New';-inkscape-font-specification:'Courier New';stroke-width:1.16034782">20</tspan></text>
<text
           xml:space="preserve"
           style="font-style:normal;font-weight:normal;font-size:46.41391754px;line-height:1.25;font-family:sans-serif;letter-spacing:0px;word-spacing:0px;fill:#000000;fill-opacity:1;stroke:none;stroke-width:1.16034782"
           x="1684.2388"
           y="-609.02527"
           id="text5091-98"
           transform="scale(1,-1)"><tspan
             sodipodi:role="line"
             id="tspan5089-8"
             x="1684.2388"
             y="-609.02527"
             style="font-style:normal;font-variant:normal;font-weight:normal;font-stretch:normal;font-family:'Courier New';-inkscape-font-specification:'Courier New';stroke-width:1.16034782">30</tspan></text>
<text
           xml:space="preserve"
           style="font-style:normal;font-weight:normal;font-size:46.41391754px;line-height:1.25;font-family:sans-serif;letter-spacing:0px;word-spacing:0px;fill:#000000;fill-opacity:1;stroke:none;stroke-width:1.16034782"
           x="1483.1582"
           y="-329.89957"
           id="text5091-7"
           transform="scale(1,-1)"><tspan
             sodipodi:role="line"
             id="tspan5089-42"
             x="1483.1582"
             y="-329.89957"
             style="font-style:normal;font-variant:normal;font-weight:normal;font-stretch:normal;font-family:'Courier New';-inkscape-font-specification:'Courier New';stroke-width:1.16034782">40</tspan></text>
<text
           xml:space="preserve"
           style="font-style:normal;font-weight:normal;font-size:46.41391754px;line-height:1.25;font-family:sans-serif;letter-spacing:0px;word-spacing:0px;fill:#000000;fill-opacity:1;stroke:none;stroke-width:1.16034782"
           x="1170.0602"
           y="-224.30936"
           id="text5091-1"
           transform="scale(1,-1)"><tspan
             sodipodi:role="line"
             id="tspan5089-0"
             x="1170.0602"
             y="-224.30936"
             style="font-style:normal;font-variant:normal;font-weight:normal;font-stretch:normal;font-family:'Courier New';-inkscape-font-specification:'Courier New';stroke-width:1.16034782">50</tspan></text>
<text
           xml:space="preserve"
           style="font-style:normal;font-weight:normal;font-size:46.41391754px;line-height:1.25;font-family:sans-serif;letter-spacing:0px;word-spacing:0px;fill:#000000;fill-opacity:1;stroke:none;stroke-width:1.16034782"
           x="863.38904"
           y="-328.06323"
           id="text5091-15"
           transform="scale(1,-1)"><tspan
             sodipodi:role="line"
             id="tspan5089-08"
             x="863.38904"
             y="-328.06323"
             style="font-style:normal;font-variant:normal;font-weight:normal;font-stretch:normal;font-family:'Courier New';-inkscape-font-specification:'Courier New';stroke-width:1.16034782">60</tspan></text>
<text
           xml:space="preserve"
           style="font-style:normal;font-weight:normal;font-size:46.41391754px;line-height:1.25;font-family:sans-serif;letter-spacing:0px;word-spacing:0px;fill:#000000;fill-opacity:1;stroke:none;stroke-width:1.16034782"
           x="663.22668"
           y="-607.1889"
           id="text5091-77"
           transform="scale(1,-1)"><tspan
             sodipodi:role="line"
             id="tspan5089-6"
             x="663.22668"
             y="-607.1889"
             style="font-style:normal;font-variant:normal;font-weight:normal;font-stretch:normal;font-family:'Courier New';-inkscape-font-specification:'Courier New';stroke-width:1.16034782">70</tspan></text>
<text
           xml:space="preserve"
           style="font-style:normal;font-weight:normal;font-size:46.41391754px;line-height:1.25;font-family:sans-serif;letter-spacing:0px;word-spacing:0px;fill:#000000;fill-opacity:1;stroke:none;stroke-width:1.16034782"
           x="657.52869"
           y="-943.50134"
           id="text5091-2"
           transform="scale(1,-1)"><tspan
             sodipodi:role="line"
             id="tspan5089-2"
             x="657.52869"
             y="-943.50134"
             style="font-style:normal;font-variant:normal;font-weight:normal;font-stretch:normal;font-family:'Courier New';-inkscape-font-specification:'Courier New';stroke-width:1.16034782">80</tspan></text>
<text
           xml:space="preserve"
           style="font-style:normal;font-weight:normal;font-size:46.41391754px;line-height:1.25;font-family:sans-serif;letter-spacing:0px;word-spacing:0px;fill:#000000;fill-opacity:1;stroke:none;stroke-width:1.16034782"
           x="854.03601"
           y="-1217.1346"
           id="text5091-72"
           transform="scale(1,-1)"><tspan
             sodipodi:role="line"
             id="tspan5089-7"
             x="854.03601"
             y="-1217.1346"
             style="font-style:normal;font-variant:normal;font-weight:normal;font-stretch:normal;font-family:'Courier New';-inkscape-font-specification:'Courier New';stroke-width:1.16034782">90</tspan></text>
</g></g></g></svg>